<svg width="152" height="140" viewBox="0 0 152 140" fill="none" xmlns="http://www.w3.org/2000/svg">
<mask id="path-3-inside-2_406_913" fill="white">
<path d="M16 22H136V24H16V22Z"/>
</mask>
<path d="M136 21.5H134.5V22.5H136V21.5ZM132.5 21.5H129.5V22.5H132.5V21.5ZM127.5 21.5H124.5V22.5H127.5V21.5ZM122.5 21.5H119.5V22.5H122.5V21.5ZM117.5 21.5H114.5V22.5H117.5V21.5ZM112.5 21.5H109.5V22.5H112.5V21.5ZM107.5 21.5H104.5V22.5H107.5V21.5ZM102.5 21.5H99.5V22.5H102.5V21.5ZM97.5 21.5H94.5V22.5H97.5V21.5ZM92.5 21.5H89.5V22.5H92.5V21.5ZM87.5 21.5H84.5V22.5H87.5V21.5ZM82.5 21.5H79.5V22.5H82.5V21.5ZM77.5 21.5H74.5V22.5H77.5V21.5ZM72.5 21.5H69.5V22.5H72.5V21.5ZM67.5 21.5H64.5V22.5H67.5V21.5ZM62.5 21.5H59.5V22.5H62.5V21.5ZM57.5 21.5H54.5V22.5H57.5V21.5ZM52.5 21.5H49.5V22.5H52.5V21.5ZM47.5 21.5H44.5V22.5H47.5V21.5ZM42.5 21.5H39.5V22.5H42.5V21.5ZM37.5 21.5H34.5V22.5H37.5V21.5ZM32.5 21.5H29.5V22.5H32.5V21.5ZM27.5 21.5H24.5V22.5H27.5V21.5ZM22.5 21.5H19.5V22.5H22.5V21.5ZM17.5 21.5H16V22.5H17.5V21.5ZM136 21H134.5V23H136V21ZM132.5 21H129.5V23H132.5V21ZM127.5 21H124.5V23H127.5V21ZM122.5 21H119.5V23H122.5V21ZM117.5 21H114.5V23H117.5V21ZM112.5 21H109.5V23H112.5V21ZM107.5 21H104.5V23H107.5V21ZM102.5 21H99.5V23H102.5V21ZM97.5 21H94.5V23H97.5V21ZM92.5 21H89.5V23H92.5V21ZM87.5 21H84.5V23H87.5V21ZM82.5 21H79.5V23H82.5V21ZM77.5 21H74.5V23H77.5V21ZM72.5 21H69.5V23H72.5V21ZM67.5 21H64.5V23H67.5V21ZM62.5 21H59.5V23H62.5V21ZM57.5 21H54.5V23H57.5V21ZM52.5 21H49.5V23H52.5V21ZM47.5 21H44.5V23H47.5V21ZM42.5 21H39.5V23H42.5V21ZM37.5 21H34.5V23H37.5V21ZM32.5 21H29.5V23H32.5V21ZM27.5 21H24.5V23H27.5V21ZM22.5 21H19.5V23H22.5V21ZM17.5 21H16V23H17.5V21Z" fill="#C4C4C4" mask="url(#path-3-inside-2_406_913)"/>
<mask id="path-5-inside-3_406_913" fill="white">
<path d="M16 46H136V48H16V46Z"/>
</mask>
<path d="M136 45.5H134.5V46.5H136V45.5ZM132.5 45.5H129.5V46.5H132.5V45.5ZM127.5 45.5H124.5V46.5H127.5V45.5ZM122.5 45.5H119.5V46.5H122.5V45.5ZM117.5 45.5H114.5V46.5H117.5V45.5ZM112.5 45.5H109.5V46.5H112.5V45.5ZM107.5 45.5H104.5V46.5H107.5V45.5ZM102.5 45.5H99.5V46.5H102.5V45.5ZM97.5 45.5H94.5V46.5H97.5V45.5ZM92.5 45.5H89.5V46.5H92.5V45.5ZM87.5 45.5H84.5V46.5H87.5V45.5ZM82.5 45.5H79.5V46.5H82.5V45.5ZM77.5 45.5H74.5V46.5H77.5V45.5ZM72.5 45.5H69.5V46.5H72.5V45.5ZM67.5 45.5H64.5V46.5H67.5V45.5ZM62.5 45.5H59.5V46.5H62.5V45.5ZM57.5 45.5H54.5V46.5H57.5V45.5ZM52.5 45.5H49.5V46.5H52.5V45.5ZM47.5 45.5H44.5V46.5H47.5V45.5ZM42.5 45.5H39.5V46.5H42.5V45.5ZM37.5 45.5H34.5V46.5H37.5V45.5ZM32.5 45.5H29.5V46.5H32.5V45.5ZM27.5 45.5H24.5V46.5H27.5V45.5ZM22.5 45.5H19.5V46.5H22.5V45.5ZM17.5 45.5H16V46.5H17.5V45.5ZM136 45H134.5V47H136V45ZM132.5 45H129.5V47H132.5V45ZM127.5 45H124.5V47H127.5V45ZM122.5 45H119.5V47H122.5V45ZM117.5 45H114.5V47H117.5V45ZM112.5 45H109.5V47H112.5V45ZM107.5 45H104.5V47H107.5V45ZM102.5 45H99.5V47H102.5V45ZM97.5 45H94.5V47H97.5V45ZM92.5 45H89.5V47H92.5V45ZM87.5 45H84.5V47H87.5V45ZM82.5 45H79.5V47H82.5V45ZM77.5 45H74.5V47H77.5V45ZM72.5 45H69.5V47H72.5V45ZM67.5 45H64.5V47H67.5V45ZM62.5 45H59.5V47H62.5V45ZM57.5 45H54.5V47H57.5V45ZM52.5 45H49.5V47H52.5V45ZM47.5 45H44.5V47H47.5V45ZM42.5 45H39.5V47H42.5V45ZM37.5 45H34.5V47H37.5V45ZM32.5 45H29.5V47H32.5V45ZM27.5 45H24.5V47H27.5V45ZM22.5 45H19.5V47H22.5V45ZM17.5 45H16V47H17.5V45Z" fill="#C4C4C4" mask="url(#path-5-inside-3_406_913)"/>
<mask id="path-7-inside-4_406_913" fill="white">
<path d="M16 70H136V72H16V70Z"/>
</mask>
<path d="M136 69.5H134.5V70.5H136V69.5ZM132.5 69.5H129.5V70.5H132.5V69.5ZM127.5 69.5H124.5V70.5H127.5V69.5ZM122.5 69.5H119.5V70.5H122.5V69.5ZM117.5 69.5H114.5V70.5H117.5V69.5ZM112.5 69.5H109.5V70.5H112.5V69.5ZM107.5 69.5H104.5V70.5H107.5V69.5ZM102.5 69.5H99.5V70.5H102.5V69.5ZM97.5 69.5H94.5V70.5H97.5V69.5ZM92.5 69.5H89.5V70.5H92.5V69.5ZM87.5 69.5H84.5V70.5H87.5V69.5ZM82.5 69.5H79.5V70.5H82.5V69.5ZM77.5 69.5H74.5V70.5H77.5V69.5ZM72.5 69.5H69.5V70.5H72.5V69.5ZM67.5 69.5H64.5V70.5H67.5V69.5ZM62.5 69.5H59.5V70.5H62.5V69.5ZM57.5 69.5H54.5V70.5H57.5V69.5ZM52.5 69.5H49.5V70.5H52.5V69.5ZM47.5 69.5H44.5V70.5H47.5V69.5ZM42.5 69.5H39.5V70.5H42.5V69.5ZM37.5 69.5H34.5V70.5H37.5V69.5ZM32.5 69.5H29.5V70.5H32.5V69.5ZM27.5 69.5H24.5V70.5H27.5V69.5ZM22.5 69.5H19.5V70.5H22.5V69.5ZM17.5 69.5H16V70.5H17.5V69.5ZM136 69H134.5V71H136V69ZM132.5 69H129.5V71H132.5V69ZM127.5 69H124.5V71H127.5V69ZM122.5 69H119.5V71H122.5V69ZM117.5 69H114.5V71H117.5V69ZM112.5 69H109.5V71H112.5V69ZM107.5 69H104.5V71H107.5V69ZM102.5 69H99.5V71H102.5V69ZM97.5 69H94.5V71H97.5V69ZM92.5 69H89.5V71H92.5V69ZM87.5 69H84.5V71H87.5V69ZM82.5 69H79.5V71H82.5V69ZM77.5 69H74.5V71H77.5V69ZM72.5 69H69.5V71H72.5V69ZM67.5 69H64.5V71H67.5V69ZM62.5 69H59.5V71H62.5V69ZM57.5 69H54.5V71H57.5V69ZM52.5 69H49.5V71H52.5V69ZM47.5 69H44.5V71H47.5V69ZM42.5 69H39.5V71H42.5V69ZM37.5 69H34.5V71H37.5V69ZM32.5 69H29.5V71H32.5V69ZM27.5 69H24.5V71H27.5V69ZM22.5 69H19.5V71H22.5V69ZM17.5 69H16V71H17.5V69Z" fill="#C4C4C4" mask="url(#path-7-inside-4_406_913)"/>
<mask id="path-9-inside-5_406_913" fill="white">
<path d="M16 94H136V96H16V94Z"/>
</mask>
<path d="M136 93.5H134.5V94.5H136V93.5ZM132.5 93.5H129.5V94.5H132.5V93.5ZM127.5 93.5H124.5V94.5H127.5V93.5ZM122.5 93.5H119.5V94.5H122.5V93.5ZM117.5 93.5H114.5V94.5H117.5V93.5ZM112.5 93.5H109.5V94.5H112.5V93.5ZM107.5 93.5H104.5V94.5H107.5V93.5ZM102.5 93.5H99.5V94.5H102.5V93.5ZM97.5 93.5H94.5V94.5H97.5V93.5ZM92.5 93.5H89.5V94.5H92.5V93.5ZM87.5 93.5H84.5V94.5H87.5V93.5ZM82.5 93.5H79.5V94.5H82.5V93.5ZM77.5 93.5H74.5V94.5H77.5V93.5ZM72.5 93.5H69.5V94.5H72.5V93.5ZM67.5 93.5H64.5V94.5H67.5V93.5ZM62.5 93.5H59.5V94.5H62.5V93.5ZM57.5 93.5H54.5V94.5H57.5V93.5ZM52.5 93.5H49.5V94.5H52.5V93.5ZM47.5 93.5H44.5V94.5H47.5V93.5ZM42.5 93.5H39.5V94.5H42.5V93.5ZM37.5 93.5H34.5V94.5H37.5V93.5ZM32.5 93.5H29.5V94.5H32.5V93.5ZM27.5 93.5H24.5V94.5H27.5V93.5ZM22.5 93.5H19.5V94.5H22.5V93.5ZM17.5 93.5H16V94.5H17.5V93.5ZM136 93H134.5V95H136V93ZM132.5 93H129.5V95H132.5V93ZM127.5 93H124.5V95H127.5V93ZM122.5 93H119.5V95H122.5V93ZM117.5 93H114.5V95H117.5V93ZM112.5 93H109.5V95H112.5V93ZM107.5 93H104.5V95H107.5V93ZM102.5 93H99.5V95H102.5V93ZM97.5 93H94.5V95H97.5V93ZM92.5 93H89.5V95H92.5V93ZM87.5 93H84.5V95H87.5V93ZM82.5 93H79.5V95H82.5V93ZM77.5 93H74.5V95H77.5V93ZM72.5 93H69.5V95H72.5V93ZM67.5 93H64.5V95H67.5V93ZM62.5 93H59.5V95H62.5V93ZM57.5 93H54.5V95H57.5V93ZM52.5 93H49.5V95H52.5V93ZM47.5 93H44.5V95H47.5V93ZM42.5 93H39.5V95H42.5V93ZM37.5 93H34.5V95H37.5V93ZM32.5 93H29.5V95H32.5V93ZM27.5 93H24.5V95H27.5V93ZM22.5 93H19.5V95H22.5V93ZM17.5 93H16V95H17.5V93Z" fill="#C4C4C4" mask="url(#path-9-inside-5_406_913)"/>
<mask id="path-11-inside-6_406_913" fill="white">
<path d="M16 118H136V120H16V118Z"/>
</mask>
<path d="M136 117.5H134.5V118.5H136V117.5ZM132.5 117.5H129.5V118.5H132.5V117.5ZM127.5 117.5H124.5V118.5H127.5V117.5ZM122.5 117.5H119.5V118.5H122.5V117.5ZM117.5 117.5H114.5V118.5H117.5V117.5ZM112.5 117.5H109.5V118.5H112.5V117.5ZM107.5 117.5H104.5V118.5H107.5V117.5ZM102.5 117.5H99.5V118.5H102.5V117.5ZM97.5 117.5H94.5V118.5H97.5V117.5ZM92.5 117.5H89.5V118.5H92.5V117.5ZM87.5 117.5H84.5V118.5H87.5V117.5ZM82.5 117.5H79.5V118.5H82.5V117.5ZM77.5 117.5H74.5V118.5H77.5V117.5ZM72.5 117.5H69.5V118.5H72.5V117.5ZM67.5 117.5H64.5V118.5H67.5V117.5ZM62.5 117.5H59.5V118.5H62.5V117.5ZM57.5 117.5H54.5V118.5H57.5V117.5ZM52.5 117.5H49.5V118.5H52.5V117.5ZM47.5 117.5H44.5V118.5H47.5V117.5ZM42.5 117.5H39.5V118.5H42.5V117.5ZM37.5 117.5H34.5V118.5H37.5V117.5ZM32.5 117.5H29.5V118.5H32.5V117.5ZM27.5 117.5H24.5V118.5H27.5V117.5ZM22.5 117.5H19.5V118.5H22.5V117.5ZM17.5 117.5H16V118.5H17.5V117.5ZM136 117H134.5V119H136V117ZM132.5 117H129.5V119H132.5V117ZM127.5 117H124.5V119H127.5V117ZM122.5 117H119.5V119H122.5V117ZM117.5 117H114.5V119H117.5V117ZM112.5 117H109.5V119H112.5V117ZM107.5 117H104.5V119H107.5V117ZM102.5 117H99.5V119H102.5V117ZM97.5 117H94.5V119H97.5V117ZM92.5 117H89.5V119H92.5V117ZM87.5 117H84.5V119H87.5V117ZM82.5 117H79.5V119H82.5V117ZM77.5 117H74.5V119H77.5V117ZM72.5 117H69.5V119H72.5V117ZM67.5 117H64.5V119H67.5V117ZM62.5 117H59.5V119H62.5V117ZM57.5 117H54.5V119H57.5V117ZM52.5 117H49.5V119H52.5V117ZM47.5 117H44.5V119H47.5V117ZM42.5 117H39.5V119H42.5V117ZM37.5 117H34.5V119H37.5V117ZM32.5 117H29.5V119H32.5V117ZM27.5 117H24.5V119H27.5V117ZM22.5 117H19.5V119H22.5V117ZM17.5 117H16V119H17.5V117Z" fill="#C4C4C4" mask="url(#path-11-inside-6_406_913)"/>
<path d="M151 0V140H153V0H151ZM1 140V0H-1V140H1Z" fill="#D7D7D7" mask="url(#path-1-inside-1_406_913)"/>
<g clip-path="url(#clip0_406_913)">
<path fill-rule="evenodd" clip-rule="evenodd" d="M38.0078 108.688H107.992V132H38.0078V108.688Z" fill="white"/>
<path fill-rule="evenodd" clip-rule="evenodd" d="M38.0078 108.688H42.6734V113.35H38.0078V108.688ZM42.6734 113.35H47.3391V118.012H42.6734V113.35ZM98.6609 113.35H103.326V118.012H98.6609V113.35ZM89.3296 113.35H93.9953V118.012H89.3296V113.35ZM70.6672 113.35H75.3328V118.012H70.6672V113.35ZM79.9984 113.35H84.664V118.012H79.9984V113.35ZM103.326 108.688H107.992V113.35H103.326V108.688ZM47.3391 108.688H52.0047V113.35H47.3391V108.688ZM52.0047 113.35H56.6703V118.012H52.0047V113.35ZM56.6703 108.688H61.3359V113.35H56.6703V108.688ZM61.3359 113.35H66.0015V118.012H61.3359V113.35ZM66.0015 108.688H70.6672V113.35H66.0015V108.688ZM84.664 108.688H89.3296V113.35H84.664V108.688ZM75.3328 108.688H79.9984V113.35H75.3328V108.688ZM93.9953 108.688H98.6609V113.35H93.9953V108.688ZM38.0078 118.012H42.6734V122.675H38.0078V118.012ZM42.6734 122.675H47.3391V127.337H42.6734V122.675ZM98.6609 122.675H103.326V127.337H98.6609V122.675ZM89.3296 122.675H93.9953V127.337H89.3296V122.675ZM70.6672 122.675H75.3328V127.337H70.6672V122.675ZM79.9984 122.675H84.664V127.337H79.9984V122.675ZM103.326 118.012H107.992V122.675H103.326V118.012ZM47.3391 118.012H52.0047V122.675H47.3391V118.012ZM52.0047 122.675H56.6703V127.337H52.0047V122.675ZM56.6703 118.012H61.3359V122.675H56.6703V118.012ZM61.3359 122.675H66.0015V127.337H61.3359V122.675ZM66.0015 118.012H70.6672V122.675H66.0015V118.012ZM84.664 118.012H89.3296V122.675H84.664V118.012ZM75.3328 118.012H79.9984V122.675H75.3328V118.012ZM93.9953 118.012H98.6609V122.675H93.9953V118.012ZM38.0078 127.337H42.6734V132H38.0078V127.337ZM103.326 127.337H107.992V132H103.326V127.337ZM47.3391 127.337H52.0047V132H47.3391V127.337ZM56.6703 127.337H61.3359V132H56.6703V127.337ZM66.0015 127.337H70.6672V132H66.0015V127.337ZM84.664 127.337H89.3296V132H84.664V127.337ZM75.3328 127.337H79.9984V132H75.3328V127.337ZM93.9953 127.337H98.6609V132H93.9953V127.337Z" fill="#D8D8D8"/>
</g>
<defs>
<clipPath id="clip0_406_913">
<rect width="70" height="23.3125" fill="white" transform="translate(38 108.688)"/>
</clipPath>
</defs>
</svg>
