<?xml version="1.0" standalone="no"?>
<!DOCTYPE svg PUBLIC "-//W3C//DTD SVG 20010904//EN"
 "http://www.w3.org/TR/2001/REC-SVG-20010904/DTD/svg10.dtd">
<svg version="1.0" xmlns="http://www.w3.org/2000/svg"
 width="512.000000pt" height="512.000000pt" viewBox="0 0 512.000000 512.000000"
 preserveAspectRatio="xMidYMid meet">

<g transform="translate(0.000000,512.000000) scale(0.100000,-0.100000)"
fill="#000000" stroke="none">
<path d="M2944 4946 c-168 -55 -263 -240 -205 -401 33 -91 35 -86 -54 -106
-348 -76 -682 -274 -907 -535 -150 -175 -263 -374 -333 -587 -36 -113 -75
-301 -75 -371 0 -53 -5 -59 -65 -74 -177 -46 -242 -251 -124 -386 44 -50 91
-75 157 -84 l45 -7 74 -220 c49 -150 80 -226 94 -237 20 -17 106 -18 1489 -18
1383 0 1469 1 1489 18 14 11 45 87 94 237 72 216 74 220 103 223 70 7 123 34
167 82 90 100 90 220 -1 321 -42 47 -56 54 -169 85 -8 2 -13 21 -13 48 0 76
-37 267 -75 381 -113 348 -343 657 -643 866 -157 110 -388 211 -577 254 -111
25 -107 19 -74 110 52 146 -20 315 -165 385 -60 28 -171 36 -232 16z m184
-173 c50 -38 67 -70 67 -132 0 -47 -5 -64 -27 -93 -70 -92 -192 -89 -262 6
-32 43 -29 132 6 178 15 19 42 42 60 52 42 21 120 16 156 -11z m203 -482 c503
-102 920 -444 1114 -916 42 -101 90 -279 99 -370 4 -33 9 -75 12 -92 l5 -33
-1520 0 -1520 0 5 53 c38 375 196 703 460 958 249 240 542 377 904 423 79 10
347 -4 441 -23z m1444 -1596 c33 -32 33 -78 0 -110 l-24 -25 -1711 0 -1711 0
-24 25 c-16 15 -25 36 -25 55 0 19 9 40 25 55 l24 25 1711 0 1711 0 24 -25z
m-299 -452 l-53 -158 -1383 0 -1383 0 -53 158 -52 157 1488 0 1488 0 -52 -157z"/>
<path d="M2986 4137 c-33 -33 -35 -79 -3 -111 20 -20 37 -24 131 -30 89 -6
112 -4 132 9 44 28 44 101 1 130 -15 10 -61 17 -129 21 -105 7 -106 7 -132
-19z"/>
<path d="M3485 4058 c-47 -27 -59 -79 -27 -117 9 -11 62 -43 117 -70 290 -145
517 -412 611 -718 27 -89 48 -113 97 -113 35 0 77 40 77 74 0 41 -74 238 -124
329 -138 254 -362 467 -618 587 -93 43 -103 45 -133 28z"/>
<path d="M905 1735 c-21 -20 -25 -34 -25 -80 l0 -55 -295 0 -296 0 -24 -25
-25 -24 0 -591 0 -591 25 -24 24 -25 296 0 295 0 0 -55 c0 -46 4 -60 25 -80
l24 -25 351 0 351 0 24 25 c22 21 25 33 25 95 l0 70 71 -36 c149 -75 142 -74
883 -74 718 0 730 1 839 56 28 15 270 153 537 307 267 154 571 329 675 390
281 161 320 208 320 377 0 102 -13 141 -71 210 -79 94 -243 135 -351 88 -15
-7 -207 -115 -426 -241 l-397 -229 -49 45 c-26 25 -61 52 -77 60 -16 8 -310
90 -654 182 -780 210 -718 203 -1062 117 l-238 -59 0 84 c0 76 -2 86 -25 108
l-24 25 -351 0 -351 0 -24 -25z m615 -775 l0 -640 -240 0 -240 0 0 640 0 640
240 0 240 0 0 -640z m3255 541 c16 -9 40 -33 53 -52 20 -28 23 -44 20 -90 -3
-35 -12 -66 -25 -85 -15 -20 -231 -151 -714 -429 -380 -220 -713 -409 -738
-420 -44 -19 -72 -20 -706 -23 -484 -3 -675 0 -715 9 -30 6 -103 36 -162 65
l-108 54 0 424 0 424 245 61 c178 44 263 61 312 61 55 0 175 -29 667 -160 331
-89 620 -168 644 -176 59 -22 94 -71 99 -137 7 -94 -60 -167 -152 -167 -22 0
-258 59 -524 130 -266 72 -492 130 -501 130 -10 0 -29 -9 -44 -21 -33 -26 -37
-86 -7 -114 22 -19 27 -21 606 -175 389 -104 424 -112 490 -108 157 11 277
127 294 288 l6 55 145 84 c548 316 678 389 695 394 30 8 86 -2 120 -22z
m-3895 -541 l0 -480 -240 0 -240 0 0 480 0 480 240 0 240 0 0 -480z"/>
<path d="M1225 615 c-22 -21 -25 -33 -25 -95 0 -62 3 -74 25 -95 32 -33 78
-33 110 0 22 21 25 33 25 95 0 62 -3 74 -25 95 -15 16 -36 25 -55 25 -19 0
-40 -9 -55 -25z"/>
</g>
</svg>
