<?xml version="1.0" encoding="UTF-8"?>
<svg xmlns="http://www.w3.org/2000/svg" version="1.1" width="500" height="500" viewBox="0 0 500 500"><rect x="0" y="0" width="500" height="500" fill="#ffffff"/><g transform="scale(20)"><g transform="translate(0,0)"><g><g transform="translate(3.5,3.5)"><path fill-rule="evenodd" d="M-3.5 -3.5L-3.5 3.5L3.5 3.5L3.5 -3.5ZM-2.5 -2.5L-2.5 2.5L2.5 2.5L2.5 -2.5Z" fill="#000000"/><path fill-rule="evenodd" d="M-1.5 -1.5L-1.5 1.5L1.5 1.5L1.5 -1.5Z" fill="#000000"/></g></g><g><g transform="translate(21.5,3.5)"><g transform="rotate(90)"><path fill-rule="evenodd" d="M-3.5 -3.5L-3.5 3.5L3.5 3.5L3.5 -3.5ZM-2.5 -2.5L-2.5 2.5L2.5 2.5L2.5 -2.5Z" fill="#000000"/><path fill-rule="evenodd" d="M-1.5 -1.5L-1.5 1.5L1.5 1.5L1.5 -1.5Z" fill="#000000"/></g></g></g><g><g transform="translate(3.5,21.5)"><g transform="rotate(-90)"><path fill-rule="evenodd" d="M-3.5 -3.5L-3.5 3.5L3.5 3.5L3.5 -3.5ZM-2.5 -2.5L-2.5 2.5L2.5 2.5L2.5 -2.5Z" fill="#000000"/><path fill-rule="evenodd" d="M-1.5 -1.5L-1.5 1.5L1.5 1.5L1.5 -1.5Z" fill="#000000"/></g></g></g><path fill-rule="evenodd" d="M9 0L9 1L8 1L8 2L9 2L9 3L8 3L8 4L10 4L10 7L11 7L11 4L12 4L12 10L11 10L11 11L10 11L10 9L11 9L11 8L6 8L6 9L7 9L7 10L5 10L5 8L0 8L0 10L1 10L1 11L0 11L0 12L1 12L1 13L0 13L0 17L1 17L1 13L2 13L2 16L3 16L3 17L4 17L4 16L6 16L6 17L7 17L7 16L6 16L6 15L7 15L7 14L8 14L8 13L10 13L10 14L9 14L9 15L8 15L8 19L9 19L9 20L8 20L8 25L10 25L10 24L9 24L9 22L10 22L10 23L11 23L11 24L12 24L12 25L13 25L13 24L16 24L16 25L17 25L17 23L18 23L18 24L22 24L22 25L25 25L25 24L24 24L24 23L25 23L25 21L23 21L23 22L22 22L22 23L21 23L21 21L22 21L22 19L25 19L25 15L23 15L23 14L22 14L22 15L23 15L23 16L24 16L24 18L22 18L22 19L21 19L21 17L22 17L22 16L17 16L17 15L19 15L19 14L20 14L20 15L21 15L21 13L22 13L22 12L18 12L18 11L19 11L19 10L20 10L20 11L21 11L21 9L22 9L22 8L21 8L21 9L20 9L20 8L19 8L19 10L18 10L18 8L15 8L15 6L14 6L14 5L13 5L13 3L12 3L12 2L15 2L15 1L16 1L16 0L14 0L14 1L11 1L11 2L10 2L10 0ZM16 2L16 3L14 3L14 4L16 4L16 5L17 5L17 2ZM10 3L10 4L11 4L11 3ZM8 5L8 7L9 7L9 5ZM13 6L13 10L12 10L12 11L13 11L13 12L10 12L10 13L13 13L13 14L10 14L10 15L9 15L9 17L10 17L10 18L9 18L9 19L13 19L13 20L9 20L9 21L12 21L12 22L11 22L11 23L13 23L13 22L14 22L14 23L17 23L17 22L18 22L18 23L20 23L20 21L17 21L17 22L15 22L15 20L14 20L14 19L16 19L16 17L15 17L15 16L16 16L16 15L17 15L17 14L19 14L19 13L17 13L17 14L16 14L16 13L15 13L15 12L16 12L16 11L17 11L17 10L14 10L14 6ZM16 6L16 7L17 7L17 6ZM23 8L23 9L24 9L24 10L25 10L25 9L24 9L24 8ZM3 9L3 12L2 12L2 11L1 11L1 12L2 12L2 13L3 13L3 14L4 14L4 15L5 15L5 10L4 10L4 9ZM8 9L8 10L7 10L7 11L6 11L6 12L7 12L7 11L8 11L8 10L9 10L9 9ZM13 10L13 11L14 11L14 12L15 12L15 11L14 11L14 10ZM22 10L22 11L23 11L23 10ZM3 12L3 13L4 13L4 12ZM23 12L23 13L25 13L25 12ZM6 13L6 14L7 14L7 13ZM14 13L14 14L13 14L13 15L11 15L11 16L10 16L10 17L11 17L11 16L13 16L13 17L12 17L12 18L13 18L13 19L14 19L14 18L13 18L13 17L14 17L14 16L15 16L15 15L14 15L14 14L15 14L15 13ZM13 15L13 16L14 16L14 15ZM17 17L17 20L20 20L20 17ZM18 18L18 19L19 19L19 18ZM13 20L13 21L14 21L14 20ZM23 22L23 23L22 23L22 24L23 24L23 23L24 23L24 22Z" fill="#000000"/></g></g></svg>
