<svg width="380" height="400" viewBox="0 0 380 400" fill="none" xmlns="http://www.w3.org/2000/svg">
<path d="M115.048 112.391C116.481 112.479 117.881 112.857 119.164 113.501C120.446 114.146 121.585 115.044 122.511 116.142C123.436 117.239 124.13 118.513 124.549 119.885C124.968 121.258 125.105 122.702 124.951 124.129C124.796 125.557 124.354 126.938 123.65 128.189C122.947 129.44 121.997 130.536 120.858 131.41C119.719 132.284 118.414 132.918 117.024 133.273C115.633 133.628 114.184 133.698 112.766 133.477" stroke="black" stroke-width="1.85785" stroke-linecap="round" stroke-linejoin="round"/>
<path d="M39.7555 135.388C36.9291 156.289 44.1346 198.542 69.2675 201.953C96.4041 205.642 112.62 166.561 115.446 145.66C116.425 135.816 113.547 125.976 107.417 118.212C101.287 110.448 92.3842 105.365 82.5821 104.034C72.7801 102.703 62.844 105.227 54.8658 111.076C46.8876 116.924 41.4897 125.64 39.8086 135.388H39.7555Z" fill="#E2E2E2"/>
<path d="M74.7765 117.464C110.318 113.163 137.214 93.8454 134.851 74.3168C132.487 54.7881 101.76 42.4436 66.2185 46.7446C30.6772 51.0456 3.78101 70.3633 6.14424 89.892C8.50747 109.421 39.2352 121.765 74.7765 117.464Z" fill="#E2E2E2"/>
<path d="M132.823 65.8574L139.908 65.9898C140.963 66.0095 141.968 66.4478 142.7 67.2082C143.433 67.9686 143.833 68.9889 143.814 70.0445L143.549 84.2414C143.529 85.297 143.091 86.3016 142.33 87.0342C141.57 87.7667 140.55 88.1671 139.494 88.1474L132.409 88.0151L132.823 65.8574Z" fill="#E2E2E2"/>
<path d="M4.55146 74.5548L11.6366 74.6871L11.222 96.8846L4.13688 96.7523C3.08121 96.7326 2.0766 96.2943 1.34407 95.5339C0.61154 94.7735 0.211085 93.7532 0.230802 92.6975L0.495959 78.5007C0.515676 77.445 0.953949 76.4404 1.71436 75.7079C2.47478 74.9754 3.49505 74.5749 4.55072 74.5946L4.55146 74.5548Z" fill="#E2E2E2"/>
<path d="M40.0606 147.252C45.9236 147.252 50.6764 142.499 50.6764 136.636C50.6764 130.773 45.9236 126.02 40.0606 126.02C34.1977 126.02 29.4448 130.773 29.4448 136.636C29.4448 142.499 34.1977 147.252 40.0606 147.252Z" fill="#E2E2E2"/>
<path d="M136.877 65.7589C136.877 65.7589 136.771 19.3126 151.594 6.14844" stroke="black" stroke-width="1.85785" stroke-linecap="round" stroke-linejoin="round"/>
<path d="M154.986 5.215C156.288 3.8436 156.684 2.10598 155.871 1.33394C155.058 0.561901 153.343 1.04778 152.041 2.41919C150.739 3.7906 150.343 5.52821 151.157 6.30025C151.97 7.07229 153.684 6.58641 154.986 5.215Z" fill="black" stroke="black" stroke-width="1.85785" stroke-linecap="round" stroke-linejoin="round"/>
<path d="M5.79812 74.172C5.79812 74.172 5.69195 27.7257 20.5282 14.5615" stroke="black" stroke-width="1.85785" stroke-linecap="round" stroke-linejoin="round"/>
<path d="M23.8663 13.6252C25.1681 12.2538 25.5642 10.5161 24.751 9.7441C23.9377 8.97206 22.2231 9.45794 20.9213 10.8293C19.6195 12.2008 19.2235 13.9384 20.0367 14.7104C20.8499 15.4824 22.5645 14.9966 23.8663 13.6252Z" fill="black" stroke="black" stroke-width="1.85785" stroke-linecap="round" stroke-linejoin="round"/>
<path d="M114.013 67.9617C112.518 65.2237 110.498 62.8073 108.069 60.8504C105.64 58.8936 102.848 57.4347 99.8549 56.5572C96.8615 55.6797 93.7245 55.4008 90.6232 55.7364C87.5219 56.072 84.5172 57.0156 81.7808 58.5132C77.3637 60.6105 72.6437 61.9988 67.7945 62.627C62.9139 63.1143 57.987 62.8231 53.1978 61.7644C47.1304 60.068 40.6377 60.8514 35.1479 63.9424C29.6581 67.0333 25.621 72.1786 23.9247 78.2463C22.2284 84.3139 23.0118 90.807 26.1026 96.297C29.1934 101.787 34.3384 105.824 40.4057 107.521C51.1063 110.237 62.2054 111.023 73.182 109.843C84.1336 108.528 94.7619 105.265 104.565 100.209C107.304 98.7138 109.722 96.6932 111.68 94.2627C113.638 91.8323 115.098 89.0396 115.975 86.0444C116.853 83.0493 117.131 79.9105 116.794 76.8077C116.458 73.7049 115.513 70.6989 114.013 67.9617Z" fill="black"/>
<path d="M88.8403 74.5567C89.3943 73.9024 90.0934 73.3866 90.8819 73.0501C91.6704 72.7137 92.5266 72.566 93.3823 72.6189C94.2379 72.6717 95.0695 72.9236 95.8106 73.3545C96.5518 73.7854 97.1821 74.3833 97.6514 75.1008M40.9763 81.2185C41.3344 80.4407 41.8688 79.7571 42.5373 79.222C43.2057 78.6869 43.9898 78.315 44.8271 78.136C45.6644 77.9569 46.5319 77.9756 47.3607 78.1904C48.1895 78.4053 48.9568 78.8105 49.6017 79.3739" stroke="white" stroke-width="1.85785" stroke-linecap="round" stroke-linejoin="round"/>
<path d="M39.3574 139.369C39.3574 139.369 37.8845 163.521 72.6114 171.046" stroke="black" stroke-width="7.28543" stroke-linecap="round" stroke-linejoin="round"/>
<path d="M83.9447 90.4949C83.6739 89.8337 83.1936 89.2796 82.5775 88.9176C81.9614 88.5557 81.2436 88.4058 80.5342 88.4911L66.1491 90.2693C65.3704 90.3728 64.6551 90.7536 64.1344 91.3418C63.6138 91.9301 63.3227 92.6864 63.3146 93.4719C63.3066 94.2574 63.582 95.0195 64.0905 95.6184C64.599 96.2172 65.3063 96.6126 66.0828 96.732C68.7862 97.1292 71.5301 97.1693 74.2441 96.8514C76.9786 96.5199 79.6565 95.8237 82.2063 94.7813C82.6024 94.6146 82.9617 94.3714 83.2636 94.0656C83.5655 93.7598 83.8041 93.3973 83.9656 92.9991C84.1271 92.6009 84.2084 92.1747 84.2048 91.7449C84.2012 91.3152 84.1128 90.8904 83.9447 90.4949Z" fill="#E2E2E2"/>
<path d="M90.0224 170.051C95.8298 164.302 97.4488 156.521 93.6386 152.671C89.8283 148.822 82.0316 150.362 76.2242 156.112C70.4168 161.861 68.7978 169.642 72.6081 173.491C76.4184 177.34 84.215 175.8 90.0224 170.051Z" fill="#E2E2E2" stroke="black" stroke-width="1.85785" stroke-linecap="round" stroke-linejoin="round"/>
<path d="M116.972 128.754C116.972 128.754 129.035 156.741 115.074 171.02" stroke="black" stroke-width="7.28543" stroke-linecap="round" stroke-linejoin="round"/>
<path d="M102.057 192.849H80.8252C80.2601 192.849 79.7035 192.711 79.2037 192.447C78.704 192.183 78.2761 191.801 77.9572 191.334C77.6383 190.867 77.4379 190.33 77.3735 189.769C77.3091 189.207 77.3825 188.638 77.5874 188.112L93.3519 147.093C93.6044 146.436 94.0504 145.871 94.6309 145.473C95.2114 145.075 95.8991 144.862 96.603 144.863H117.835C118.4 144.865 118.956 145.003 119.456 145.267C119.956 145.531 120.384 145.913 120.704 146.379C121.024 146.845 121.225 147.381 121.292 147.943C121.358 148.504 121.288 149.073 121.086 149.601L105.308 190.62C105.057 191.278 104.611 191.844 104.03 192.242C103.45 192.64 102.761 192.852 102.057 192.849Z" fill="black"/>
<path d="M112.991 143.881H118.658C119.241 143.88 119.816 144.021 120.332 144.293C120.848 144.565 121.29 144.958 121.619 145.439C121.949 145.921 122.156 146.475 122.223 147.055C122.289 147.634 122.214 148.221 122.002 148.764L112.872 172.465" stroke="white" stroke-width="1.85785" stroke-linecap="round" stroke-linejoin="round"/>
<path d="M121.688 176.608C123.124 171.386 117.9 165.396 110.021 163.23C102.142 161.064 94.5908 163.542 93.1553 168.765C91.7198 173.987 96.9435 179.977 104.823 182.143C112.702 184.308 120.253 181.831 121.688 176.608Z" fill="#E2E2E2" stroke="black" stroke-width="1.85785" stroke-linecap="round" stroke-linejoin="round"/>
<path d="M93.4714 167.902L105.295 167.504" stroke="black" stroke-width="1.85785" stroke-linecap="round" stroke-linejoin="round"/>
<path d="M29.1131 213.047C28.6885 216.112 44.3999 220.81 64.2116 223.53C84.0233 226.251 100.425 225.972 100.836 222.907C101.128 220.837 93.9624 217.997 83.121 215.542M39.1318 228.746C34.8324 230.245 41.9848 233.417 55.0555 235.845C68.1262 238.274 82.2983 239.044 86.5977 237.557C90.8971 236.071 83.7447 232.886 70.674 230.458M45.9923 248.187C54.6048 250.644 63.4979 251.982 72.4521 252.168C80.6263 252.248 82.0461 250.589 75.6103 248.452C71.0858 247.097 66.4564 246.12 61.77 245.533" stroke="white" stroke-width="1.85785" stroke-linecap="round" stroke-linejoin="round"/>
<path d="M55.1086 235.845C68.2191 238.287 82.3514 239.043 86.6508 237.557C90.9502 236.07 83.7978 232.886 70.7271 230.457M63.8932 251.65C66.9187 251.968 69.8646 252.167 72.4389 252.194C80.6131 252.274 82.0329 250.615 75.5971 248.478C71.4886 247.218 67.2866 246.287 63.0307 245.691" stroke="white" stroke-width="1.85785" stroke-linecap="round" stroke-linejoin="round"/>
<path d="M26.4194 113.174C26.4194 113.174 39.6892 120.207 67.7679 119.331" stroke="white" stroke-width="1.85785" stroke-linecap="round" stroke-linejoin="round"/>
<path d="M308.574 81.2715H309.237C315.702 81.355 321.913 83.7953 326.706 88.1344C331.499 92.4734 334.543 98.4128 335.267 104.837C335.991 111.262 334.346 117.73 330.639 123.027C326.932 128.324 321.42 132.086 315.136 133.607C308.852 135.127 302.23 134.301 296.512 131.285C290.794 128.268 286.373 123.268 284.08 117.223C281.788 111.178 281.78 104.504 284.059 98.4534C286.338 92.4032 290.747 87.393 296.459 84.3635" stroke="black" stroke-width="1.85785" stroke-linecap="round" stroke-linejoin="round"/>
<path d="M262.687 225.004L260.033 228.109L159.183 209.093L110.603 311.447L132.644 323.391L145.223 306.139L134.608 365.232L159.701 370.846L186.572 278.152L258.388 295.961C264.306 297.417 270.462 297.631 276.466 296.588C282.471 295.545 288.194 293.268 293.274 289.901C298.355 286.534 302.682 282.15 305.982 277.026C309.282 271.902 311.484 266.149 312.449 260.131L316.43 235.859L262.687 225.004ZM282.539 102.571C282.539 102.571 277.562 109.206 277.708 111.131L282.539 102.571Z" fill="black"/>
<path d="M302.324 145.142C321.99 144.173 341.403 152.414 360.578 179.114C379.753 205.814 383.137 222.322 377.563 229.608C372.574 236.123 331.252 211.348 322.6 206.066L316.403 235.911L262.687 225.003L266.801 195.158L245.397 217.425L180.229 227.498L172.174 203.346L229.234 195.29C229.234 195.29 267.093 151.087 279.5 148.446C287.026 146.84 294.651 145.736 302.324 145.142Z" fill="#C8C5F3"/>
<path d="M290.076 83.0765C290.076 83.0765 312.82 70.39 331.823 82.1077C350.825 93.8255 344.761 139.807 340.063 153.078L298.582 150.079C298.582 150.079 314.399 127.877 311.148 114.063C307.897 100.248 293.168 95.8426 292.133 87.3761C292.133 87.3761 278.107 98.9213 282.844 114.461C282.844 114.62 282.937 114.766 282.977 114.925C287.687 130.04 296.246 131.752 296.246 131.752L289.611 143.696L282.831 144.227C282.831 144.227 269.136 141.572 265.859 137.591C270.152 127.421 273.791 116.987 276.753 106.353C281.013 90.4283 290.076 83.0765 290.076 83.0765Z" fill="black"/>
<path d="M322.56 180.069C322.56 180.069 324.617 177.588 332.234 181.98C339.851 186.373 361.095 197.905 361.095 197.905M356.557 195.476L359.901 192.504" stroke="white" stroke-width="1.85785" stroke-linecap="round" stroke-linejoin="round"/>
<path d="M320.795 183.162C320.795 183.162 300.015 190.607 299.895 196.963C299.827 198.515 300.127 200.061 300.771 201.475C299.898 202.743 299.514 204.285 299.689 205.815C299.865 207.344 300.589 208.759 301.727 209.796C305.708 214.082 320.795 200.029 320.795 200.029V183.162Z" fill="#E2E2E2"/>
<path d="M320.795 183.162C320.795 183.162 300.015 190.607 299.895 196.963C299.827 198.515 300.127 200.061 300.771 201.475C299.898 202.743 299.514 204.285 299.689 205.815C299.865 207.344 300.589 208.759 301.727 209.796C303.584 211.773 307.791 209.796 311.785 207.142M309.689 192.757C309.689 192.757 299.776 200.586 299.816 203.638" stroke="black" stroke-width="1.85785" stroke-linecap="round" stroke-linejoin="round"/>
<path d="M136.877 319.847L180.415 248.014C181.978 245.435 184.199 243.318 186.85 241.881C189.502 240.444 192.488 239.74 195.502 239.839L260.02 241.976" stroke="white" stroke-width="1.85785" stroke-linecap="round" stroke-linejoin="round"/>
<path d="M129.897 372.04C129.897 372.04 123.182 383.599 102.163 391.587C102.163 391.587 126.049 400.412 146.086 384.859M157.432 381.077C157.432 381.077 154.91 394.587 152.8 399.072M104.273 315.521C104.273 315.521 78.2112 324.811 62.0354 319.861C62.0354 319.861 71.3242 333.582 109.316 334.644M122.134 333.383L113.509 346.614" stroke="black" stroke-width="1.85785" stroke-linecap="round" stroke-linejoin="round"/>
<path d="M173.209 206.438C173.209 206.438 156.104 204.805 149.403 212.582C141.203 222.097 141.441 230.563 150.558 227.949C151.47 228.477 152.48 228.816 153.526 228.946C154.573 229.075 155.634 228.994 156.649 228.705C166.03 226.622 178.716 222.959 178.716 222.959" fill="#E2E2E2"/>
<path d="M173.209 206.438C173.209 206.438 156.104 204.805 149.403 212.582C141.203 222.097 141.441 230.563 150.558 227.949C151.47 228.477 152.48 228.816 153.526 228.946C154.573 229.075 155.634 228.994 156.649 228.705C166.03 226.622 178.716 222.959 178.716 222.959" stroke="black" stroke-width="1.85785" stroke-linecap="round" stroke-linejoin="round"/>
<path d="M167.888 215.542C167.888 215.542 146.272 222.973 150.637 228.003C155.003 233.032 174.364 224.3 174.364 224.3M302.125 318.162L328.664 393.273C328.855 393.811 328.938 394.382 328.908 394.952C328.878 395.523 328.736 396.082 328.489 396.597C328.243 397.113 327.897 397.574 327.471 397.956C327.046 398.337 326.55 398.631 326.01 398.82C325.546 398.987 325.057 399.072 324.564 399.072C323.663 399.073 322.785 398.793 322.05 398.273C321.316 397.752 320.761 397.016 320.464 396.166L295.105 321.174C287.073 324.145 278.576 325.664 270.012 325.66C268.34 325.66 266.668 325.66 264.983 325.487L227.721 322.939L201.752 396.139C201.455 396.989 200.901 397.725 200.166 398.246C199.431 398.767 198.553 399.046 197.652 399.045C197.159 399.045 196.67 398.96 196.206 398.793C195.667 398.604 195.17 398.31 194.745 397.929C194.319 397.548 193.973 397.086 193.727 396.571C193.48 396.055 193.338 395.496 193.308 394.926C193.278 394.355 193.361 393.784 193.552 393.246L218.565 322.316L217.132 322.223C215.169 322.146 213.241 321.676 211.463 320.841C209.685 320.006 208.092 318.823 206.779 317.361C205.467 315.9 204.46 314.19 203.82 312.332C203.179 310.475 202.918 308.508 203.051 306.548C203.184 304.588 203.709 302.674 204.595 300.921C205.481 299.167 206.709 297.609 208.208 296.339C209.706 295.068 211.444 294.111 213.319 293.524C215.194 292.937 217.167 292.732 219.123 292.922L266.92 296.226C277.531 296.969 288.039 293.744 296.407 287.178C304.776 280.611 310.407 271.171 312.21 260.688L322.043 204.116C322.373 202.217 323.074 200.401 324.106 198.772C325.138 197.144 326.481 195.734 328.057 194.625C329.634 193.515 331.414 192.727 333.295 192.305C335.176 191.883 337.122 191.836 339.021 192.166C340.921 192.496 342.737 193.198 344.365 194.23C345.994 195.262 347.403 196.604 348.512 198.181C349.622 199.758 350.41 201.538 350.832 203.419C351.254 205.3 351.301 207.246 350.971 209.146L341.231 265.717C339.305 276.922 334.759 287.513 327.963 296.627C321.167 305.741 312.314 313.12 302.125 318.162Z" stroke="black" stroke-width="1.85785" stroke-linecap="round" stroke-linejoin="round"/>
</svg>
