<svg width="22" height="22" viewBox="0 0 22 22" fill="none" xmlns="http://www.w3.org/2000/svg">
<path d="M10.9998 5.50033C12.6853 5.49472 14.3382 5.96488 15.7684 6.85674C17.1987 7.74861 18.3482 9.02597 19.0848 10.542C17.5723 13.6312 14.474 15.5837 10.9998 15.5837C7.52567 15.5837 4.42734 13.6312 2.91484 10.542C3.65149 9.02597 4.801 7.74861 6.23123 6.85674C7.66145 5.96488 9.31433 5.49472 10.9998 5.50033ZM10.9998 3.66699C6.4165 3.66699 2.50234 6.51783 0.916504 10.542C2.50234 14.5662 6.4165 17.417 10.9998 17.417C15.5832 17.417 19.4973 14.5662 21.0832 10.542C19.4973 6.51783 15.5832 3.66699 10.9998 3.66699ZM10.9998 8.25033C11.6076 8.25033 12.1905 8.49177 12.6203 8.92154C13.0501 9.35131 13.2915 9.9342 13.2915 10.542C13.2915 11.1498 13.0501 11.7327 12.6203 12.1624C12.1905 12.5922 11.6076 12.8337 10.9998 12.8337C10.392 12.8337 9.80916 12.5922 9.37938 12.1624C8.94961 11.7327 8.70817 11.1498 8.70817 10.542C8.70817 9.9342 8.94961 9.35131 9.37938 8.92154C9.80916 8.49177 10.392 8.25033 10.9998 8.25033ZM10.9998 6.41699C8.7265 6.41699 6.87484 8.26866 6.87484 10.542C6.87484 12.8153 8.7265 14.667 10.9998 14.667C13.2732 14.667 15.1248 12.8153 15.1248 10.542C15.1248 8.26866 13.2732 6.41699 10.9998 6.41699Z" fill="black"/>
<path d="M5.5 3.5L18.5 16.5" stroke="white" stroke-width="1.5"/>
<path d="M2 2L20.5 20.5" stroke="black" stroke-width="2" stroke-linecap="round"/>
</svg>
