<svg width="22" height="23" viewBox="0 0 22 23" fill="none" xmlns="http://www.w3.org/2000/svg">
<g opacity="0.5" clip-path="url(#clip0_95_35)">
<path d="M11.0001 6.00002C12.6856 5.99442 14.3385 6.46457 15.7687 7.35644C17.1989 8.2483 18.3484 9.52567 19.0851 11.0417C17.5726 14.1309 14.4742 16.0834 11.0001 16.0834C7.52592 16.0834 4.42758 14.1309 2.91508 11.0417C3.65173 9.52567 4.80124 8.2483 6.23147 7.35644C7.6617 6.46457 9.31457 5.99442 11.0001 6.00002ZM11.0001 4.16669C6.41675 4.16669 2.50258 7.01752 0.916748 11.0417C2.50258 15.0659 6.41675 17.9167 11.0001 17.9167C15.5834 17.9167 19.4976 15.0659 21.0834 11.0417C19.4976 7.01752 15.5834 4.16669 11.0001 4.16669ZM11.0001 8.75002C11.6079 8.75002 12.1908 8.99146 12.6205 9.42123C13.0503 9.851 13.2917 10.4339 13.2917 11.0417C13.2917 11.6495 13.0503 12.2324 12.6205 12.6621C12.1908 13.0919 11.6079 13.3334 11.0001 13.3334C10.3923 13.3334 9.8094 13.0919 9.37963 12.6621C8.94986 12.2324 8.70842 11.6495 8.70842 11.0417C8.70842 10.4339 8.94986 9.851 9.37963 9.42123C9.8094 8.99146 10.3923 8.75002 11.0001 8.75002ZM11.0001 6.91669C8.72675 6.91669 6.87508 8.76835 6.87508 11.0417C6.87508 13.315 8.72675 15.1667 11.0001 15.1667C13.2734 15.1667 15.1251 13.315 15.1251 11.0417C15.1251 8.76835 13.2734 6.91669 11.0001 6.91669Z" fill="black"/>
</g>
<defs>
<clipPath id="clip0_95_35">
<rect width="22" height="22" fill="white" transform="translate(0 0.5)"/>
</clipPath>
</defs>
</svg>
	