<svg width="23" height="23" viewBox="0 0 23 23" fill="none" xmlns="http://www.w3.org/2000/svg">
<g opacity="0.7" clip-path="url(#clip0_116_277)">
<path d="M6.00008 9.66675C4.99175 9.66675 4.16675 10.4917 4.16675 11.5001C4.16675 12.5084 4.99175 13.3334 6.00008 13.3334C7.00841 13.3334 7.83341 12.5084 7.83341 11.5001C7.83341 10.4917 7.00841 9.66675 6.00008 9.66675ZM17.0001 9.66675C15.9917 9.66675 15.1667 10.4917 15.1667 11.5001C15.1667 12.5084 15.9917 13.3334 17.0001 13.3334C18.0084 13.3334 18.8334 12.5084 18.8334 11.5001C18.8334 10.4917 18.0084 9.66675 17.0001 9.66675ZM11.5001 9.66675C10.4917 9.66675 9.66675 10.4917 9.66675 11.5001C9.66675 12.5084 10.4917 13.3334 11.5001 13.3334C12.5084 13.3334 13.3334 12.5084 13.3334 11.5001C13.3334 10.4917 12.5084 9.66675 11.5001 9.66675Z" fill="black"/>
</g>
<defs>
<clipPath id="clip0_116_277">
<rect width="22" height="22" fill="white" transform="translate(0.5 0.5)"/>
</clipPath>
</defs>
</svg>
