<svg width="34" height="25" viewBox="0 0 34 25" fill="none" xmlns="http://www.w3.org/2000/svg">
<rect width="34" height="25" rx="2" fill="white"/>
<rect y="4" width="1" height="17" fill="#CCCCCC"/>
<g clip-path="url(#clip0_116_304)">
<path d="M13.5158 10.5479C13.9518 10.1019 14.5588 10.0669 15.0918 10.5479L18.9998 14.2949L22.9078 10.5479C23.4408 10.0669 24.0488 10.1019 24.4818 10.5479C24.9178 10.9929 24.8898 11.7449 24.4818 12.1629C24.0758 12.5809 19.7868 16.6649 19.7868 16.6649C19.5698 16.8879 19.2848 16.9999 18.9998 16.9999C18.7148 16.9999 18.4298 16.8879 18.2108 16.6649C18.2108 16.6649 13.9238 12.5809 13.5158 12.1629C13.1078 11.7449 13.0798 10.9929 13.5158 10.5479Z" fill="#808080"/>
</g>
<defs>
<clipPath id="clip0_116_304">
<rect width="20" height="20" fill="white" transform="translate(9 3)"/>
</clipPath>
</defs>
</svg>
