<svg width="267" height="83" viewBox="0 0 267 83" fill="none" xmlns="http://www.w3.org/2000/svg">
<path d="M25.008 46.64C21.5093 46.64 18.288 46.064 15.344 44.912C12.4 43.76 9.84 42.16 7.664 40.112C5.488 38.0213 3.80267 35.5893 2.608 32.816C1.41333 30 0.816 26.928 0.816 23.6C0.816 20.272 1.41333 17.2213 2.608 14.448C3.80267 11.632 5.488 9.2 7.664 7.152C9.84 5.06133 12.4 3.44 15.344 2.288C18.288 1.136 21.488 0.559998 24.944 0.559998C28.4427 0.559998 31.6427 1.136 34.544 2.288C37.488 3.44 40.048 5.06133 42.224 7.152C44.4 9.2 46.0853 11.632 47.28 14.448C48.4747 17.2213 49.072 20.272 49.072 23.6C49.072 26.928 48.4747 30 47.28 32.816C46.0853 35.632 44.4 38.064 42.224 40.112C40.048 42.16 37.488 43.76 34.544 44.912C31.6427 46.064 28.464 46.64 25.008 46.64ZM24.944 39.344C27.2053 39.344 29.296 38.96 31.216 38.192C33.136 37.424 34.8 36.336 36.208 34.928C37.616 33.4773 38.704 31.8133 39.472 29.936C40.2827 28.016 40.688 25.904 40.688 23.6C40.688 21.296 40.2827 19.2053 39.472 17.328C38.704 15.408 37.616 13.744 36.208 12.336C34.8 10.8853 33.136 9.776 31.216 9.008C29.296 8.24 27.2053 7.856 24.944 7.856C22.6827 7.856 20.592 8.24 18.672 9.008C16.7947 9.776 15.1307 10.8853 13.68 12.336C12.272 13.744 11.1627 15.408 10.352 17.328C9.584 19.2053 9.2 21.296 9.2 23.6C9.2 25.8613 9.584 27.952 10.352 29.872C11.1627 31.792 12.272 33.4773 13.68 34.928C15.088 36.336 16.752 37.424 18.672 38.192C20.592 38.96 22.6827 39.344 24.944 39.344ZM57.891 46V1.2H76.323C80.291 1.2 83.683 1.84 86.499 3.12C89.3577 4.4 91.555 6.23466 93.091 8.624C94.627 11.0133 95.395 13.8507 95.395 17.136C95.395 20.4213 94.627 23.2587 93.091 25.648C91.555 28.0373 89.3577 29.872 86.499 31.152C83.683 32.432 80.291 33.072 76.323 33.072H62.499L66.211 29.168V46H57.891ZM66.211 30.064L62.499 26.032H75.939C79.6083 26.032 82.3603 25.264 84.195 23.728C86.0723 22.1493 87.011 19.952 87.011 17.136C87.011 14.2773 86.0723 12.08 84.195 10.544C82.3603 9.008 79.6083 8.24 75.939 8.24H62.499L66.211 4.144V30.064ZM111.384 19.824H133.656V26.672H111.384V19.824ZM112.024 39.024H137.304V46H103.704V1.2H136.408V8.176H112.024V39.024ZM146.579 46V1.2H153.427L181.523 35.696H178.131V1.2H186.387V46H179.539L151.443 11.504H154.835V46H146.579ZM73.166 82V37.2H80.014L99.598 69.904H96.014L115.278 37.2H122.126L122.19 82H114.318L114.254 49.552H115.918L99.534 76.88H95.822L79.182 49.552H81.102V82H73.166ZM141.651 55.824H163.923V62.672H141.651V55.824ZM142.291 75.024H167.571V82H133.971V37.2H166.675V44.176H142.291V75.024ZM176.526 82V37.2H183.374L211.47 71.696H208.078V37.2H216.334V82H209.486L181.39 47.504H184.782V82H176.526ZM247.283 82.64C241.139 82.64 236.317 80.912 232.819 77.456C229.363 74 227.635 69.008 227.635 62.48V37.2H235.955V62.16C235.955 66.768 236.936 70.1173 238.899 72.208C240.904 74.2987 243.72 75.344 247.347 75.344C250.973 75.344 253.768 74.2987 255.731 72.208C257.693 70.1173 258.675 66.768 258.675 62.16V37.2H266.867V62.48C266.867 69.008 265.117 74 261.619 77.456C258.163 80.912 253.384 82.64 247.283 82.64Z" fill="url(#paint0_linear_501_11)"/>
<defs>
<linearGradient id="paint0_linear_501_11" x1="17" y1="-9.5" x2="187.649" y2="186.824" gradientUnits="userSpaceOnUse">
<stop stop-color="#D9B6C8"/>
<stop offset="0.338809" stop-color="#C8C5F3"/>
<stop offset="1" stop-color="#64BF95"/>
</linearGradient>
</defs>
</svg>
