<svg width="254" height="300" viewBox="0 0 254 300" fill="none" xmlns="http://www.w3.org/2000/svg">
<g clip-path="url(#clip0_9_119)">
<path d="M59.8195 168.945C62.2325 170.295 64.9669 170.964 67.7306 170.88" stroke="black" stroke-width="1.39667" stroke-linecap="round" stroke-linejoin="round"/>
<path d="M99.0734 0.0078125H253.156V206.984H99.0734V0.0078125Z" fill="#FBF0F5"/>
<path d="M149.59 52.5624C152.971 52.5624 152.582 58.9372 147.595 58.9372H135.235C132.462 58.9372 132.332 52.5624 136.971 52.5624H139.574C142.776 43.9031 144.991 37.9174 148.203 29.1982L146.507 29.667C143.734 30.4552 141.829 25.2077 147.076 23.8609L156.563 21.3469C156.735 21.2849 156.922 21.2747 157.1 21.3176C157.278 21.3605 157.439 21.4546 157.565 21.5883C157.69 21.7219 157.773 21.8894 157.804 22.0698C157.835 22.2503 157.813 22.436 157.74 22.6039L146.687 52.5325L149.59 52.5624ZM169.431 33.9269C169.95 33.9269 170.429 33.8471 170.987 33.8471C177.102 33.8471 180.963 38.3064 180.963 43.1648C180.963 44.1625 180.783 45.0703 179.097 50.4076C177.102 56.3933 171.117 59.3861 165.83 59.3861C159.675 59.3861 155.376 55.5253 155.116 50.4076C154.727 43.0351 162.837 43.9929 161.401 49.5396C161.191 51.5349 162.658 53.2208 165.7 53.2208C168.743 53.2208 171.416 52.313 172.414 49.3601C173.022 47.6342 174.02 45.4594 174.02 43.514C174.02 40.9501 172.025 39.1345 168.952 39.3938L164.134 40.3017C163.753 40.329 163.369 40.2777 163.009 40.1508C162.648 40.024 162.317 39.8244 162.036 39.5644C161.755 39.3043 161.531 38.9894 161.377 38.6392C161.223 38.289 161.143 37.9108 161.141 37.5283C161.203 36.3814 161.452 35.2524 161.88 34.1863L165.63 22.9531C165.7 22.7668 165.823 22.6056 165.985 22.4901C166.147 22.3745 166.34 22.31 166.538 22.3046H180.843C183.706 22.3046 184.055 28.1507 179.237 28.1507H170.429L168.434 34.0466L169.431 33.9269ZM200.784 21.6462C206.421 21.6462 211.279 25.3374 211.279 30.4951C211.273 31.5146 211.098 32.526 210.76 33.4879L205.034 49.6992C202.48 56.9021 197.054 59.2864 192.465 59.2864C187.218 59.2864 182.489 56.2037 182.489 50.6171C182.53 49.283 182.779 47.9635 183.227 46.7064L189.073 30.0661C189.844 27.5802 191.405 25.4135 193.518 23.8941C195.632 22.3748 198.182 21.5856 200.784 21.6462ZM204.425 30.3255C204.414 29.8812 204.314 29.4438 204.129 29.0394C203.945 28.635 203.681 28.272 203.353 27.9721C203.025 27.6721 202.64 27.4414 202.221 27.2939C201.802 27.1463 201.358 27.0848 200.914 27.1131C199.049 27.1131 196.924 28.3302 195.846 31.2333L189.562 49.0508C189.366 49.5501 189.261 50.0807 189.253 50.6171C189.254 51.0568 189.346 51.4914 189.522 51.8943C189.698 52.2972 189.955 52.6599 190.276 52.9598C190.598 53.2598 190.977 53.4908 191.391 53.6387C191.806 53.7865 192.245 53.848 192.684 53.8194C194.939 53.8194 197.014 52.0437 198.061 49.0508L204.166 31.7122C204.33 31.2679 204.418 30.799 204.425 30.3255ZM149.59 114.086C152.971 114.086 152.582 120.45 147.595 120.45H135.235C132.462 120.45 132.332 114.086 136.971 114.086H139.574C142.776 105.456 144.991 99.4306 148.203 90.7114L146.507 91.1903C143.734 91.9684 141.829 86.7209 147.076 85.3841L156.563 82.8601C156.734 82.8207 156.912 82.8271 157.079 82.8785C157.247 82.93 157.398 83.0247 157.518 83.1532C157.637 83.2817 157.72 83.4393 157.759 83.6103C157.798 83.7813 157.792 83.9596 157.74 84.1271L146.687 114.056L149.59 114.086ZM181.711 92.3176C181.412 94.9613 179.806 98.0439 177.072 101.077L165.102 114.385H173.342C176.813 114.385 176.763 120.371 171.476 120.371H155.096C152.363 120.371 151.884 118.814 153.919 116.47L171.426 97.3456C174.289 94.1332 175.287 89.8933 171.865 89.8933C171.28 89.8844 170.707 90.0638 170.231 90.405C169.755 90.7463 169.401 91.2314 169.222 91.7888C167.227 96.5574 160.683 94.4325 162.239 89.9233C163.456 86.3219 167.446 83.2891 172.384 83.2891C178.03 83.2991 181.97 87.2397 181.711 92.3176ZM197.921 83.1694C203.558 83.1694 208.416 86.8506 208.416 92.0083C208.41 93.0278 208.235 94.0393 207.897 95.0012L202.171 111.222C199.617 118.415 194.191 120.8 189.602 120.8C184.355 120.8 179.676 117.727 179.676 112.13C179.716 110.799 179.965 109.483 180.414 108.23L186.26 91.5793C187.031 89.1036 188.585 86.9452 190.688 85.4286C192.791 83.9119 195.329 83.1191 197.921 83.1694ZM201.572 91.8387C201.56 91.3949 201.458 90.9582 201.274 90.5544C201.089 90.1507 200.825 89.7882 200.497 89.4885C200.17 89.1889 199.785 88.9581 199.367 88.81C198.948 88.6619 198.504 88.5994 198.061 88.6264C196.196 88.6264 194.071 89.8435 192.983 92.7465L186.699 110.574C186.503 111.07 186.398 111.597 186.39 112.13C186.393 112.57 186.486 113.004 186.662 113.407C186.839 113.81 187.095 114.173 187.416 114.473C187.737 114.773 188.116 115.006 188.529 115.155C188.943 115.305 189.382 115.368 189.821 115.343C192.076 115.343 194.151 113.557 195.198 110.574L201.353 93.2254C201.504 92.779 201.579 92.3101 201.572 91.8387ZM149.59 175.589C152.971 175.589 152.582 181.964 147.595 181.964H135.235C132.462 181.964 132.332 175.589 136.971 175.589H139.574C142.776 166.959 144.991 160.934 148.203 152.225L146.487 152.644C143.714 153.422 141.809 148.174 147.056 146.828L156.543 144.314C156.715 144.251 156.902 144.241 157.08 144.284C157.258 144.327 157.419 144.421 157.545 144.555C157.67 144.689 157.753 144.856 157.784 145.036C157.815 145.217 157.793 145.403 157.72 145.571L146.687 175.589H149.59ZM173.78 144.663C179.417 144.663 184.275 148.344 184.275 153.502C184.266 154.522 184.087 155.533 183.746 156.494L178.03 172.706C175.466 179.909 170.05 182.293 165.451 182.293C160.204 182.293 155.525 179.21 155.525 173.624C155.57 172.293 155.819 170.978 156.263 169.723L162.119 153.073C162.89 150.597 164.444 148.438 166.547 146.922C168.65 145.405 171.188 144.612 173.78 144.663ZM177.422 153.332C177.409 152.888 177.307 152.451 177.123 152.048C176.938 151.644 176.674 151.281 176.346 150.982C176.019 150.682 175.634 150.451 175.216 150.303C174.797 150.155 174.353 150.093 173.91 150.12C172.045 150.12 169.92 151.337 168.833 154.24L162.548 172.057C162.355 172.557 162.253 173.088 162.249 173.624C162.251 174.062 162.342 174.496 162.518 174.898C162.693 175.301 162.949 175.663 163.269 175.963C163.589 176.262 163.968 176.494 164.381 176.642C164.794 176.791 165.232 176.853 165.67 176.826C167.925 176.826 170.01 175.05 171.047 172.057L177.162 154.719C177.32 154.27 177.404 153.798 177.412 153.322L177.422 153.332ZM199.966 144.663C205.603 144.663 210.451 148.344 210.451 153.502C210.445 154.521 210.27 155.533 209.932 156.494L204.216 172.706C201.652 179.909 196.236 182.293 191.637 182.293C186.39 182.293 181.711 179.21 181.711 173.624C181.751 172.293 182 170.976 182.449 169.723L188.305 153.073C189.076 150.597 190.63 148.438 192.733 146.922C194.836 145.405 197.374 144.612 199.966 144.663ZM203.607 153.332C203.595 152.888 203.493 152.451 203.309 152.048C203.124 151.644 202.86 151.281 202.532 150.982C202.205 150.682 201.82 150.451 201.402 150.303C200.983 150.155 200.539 150.093 200.096 150.12C198.231 150.12 196.106 151.337 195.019 154.24L188.734 172.057C188.54 172.557 188.439 173.088 188.435 173.624C188.437 174.062 188.528 174.496 188.703 174.898C188.879 175.301 189.135 175.663 189.455 175.963C189.775 176.262 190.154 176.494 190.567 176.642C190.979 176.791 191.418 176.853 191.856 176.826C194.111 176.826 196.196 175.05 197.233 172.057L203.348 154.709C203.508 154.263 203.596 153.795 203.607 153.322V153.332Z" fill="white"/>
<path d="M133.29 87.3195L214.77 111.771M133.29 28.2106L155.036 34.735M133.29 151.836L214.77 176.297" stroke="white" stroke-width="5.7862" stroke-linecap="round" stroke-linejoin="round"/>
<path d="M158.808 44.6015C158.46 44.2642 158.015 44.0436 157.536 43.9703C157.057 43.897 156.567 43.9746 156.134 44.1925L158.728 34.5455L153.63 34.1265L150.348 43.9031C150.085 43.6257 149.732 43.4504 149.353 43.4084C148.973 43.3664 148.59 43.4604 148.273 43.6737C145.4 45.3796 148.273 56.3335 148.273 56.3335L156.573 59.9548C163.596 56.2038 162.11 47.3749 158.808 44.6015Z" fill="white"/>
<path d="M148.273 56.3035C148.273 56.3035 145.4 45.3297 148.273 43.6437C151.146 41.9578 152.533 48.6318 152.533 48.6318C152.533 48.6318 155.525 41.8181 158.807 44.5815C162.089 47.3449 163.595 56.1838 156.573 59.9049M44.9259 163.129C44.9259 163.129 39.7086 171.459 37.8332 170.85C35.9578 170.242 39.0702 164.226 39.0702 164.226C39.0702 164.226 31.808 173.115 26.501 170.212C21.1939 167.309 36.8855 154.33 36.8855 154.33" stroke="black" stroke-width="1.39667" stroke-linecap="round" stroke-linejoin="round"/>
<path d="M74.2541 149.162L61.0963 192.967L19.4583 221.719L32.8754 248.924L87.7212 213.738L99.0734 152.574L74.2541 149.162Z" fill="#C8C5F3"/>
<path d="M115.444 155.427C115.444 155.427 111.962 159.717 107.064 160.864L106.066 154.509L112.72 153.512L115.444 155.427Z" fill="white"/>
<path d="M25.3838 235.546C25.3838 235.546 12.2858 252.765 9.30312 256.137C9.30312 256.137 6.12091 251.318 8.9041 242.779M16.0267 231.166L1.54211 241.711" stroke="black" stroke-width="1.39667" stroke-linecap="round" stroke-linejoin="round"/>
<path d="M65.4058 110.315L36.3469 154.08L44.9958 164.555L72.9274 130.187L74.4936 104.199L66.8523 109.477L65.4058 110.315Z" fill="white"/>
<path d="M107.183 150.928L115.204 271.261L77.3265 270.423L84.2396 153.432L107.183 150.928Z" fill="#C8C5F3"/>
<path d="M106.136 93.3052C106.136 93.3052 131.534 75.3481 147.664 55.266L158.089 59.7852C158.089 59.7852 134.866 99.2511 114.047 120.041L115.703 155.377C115.703 155.377 93.0182 156.824 85.5564 158.051C76.5784 159.527 60.0887 164.266 60.0887 164.266L66.6826 112.978L106.136 93.3052Z" fill="white"/>
<path d="M109.947 74.959C110.219 76.1895 110.317 77.4524 110.236 78.7101C110.059 81.92 108.756 84.9646 106.555 87.3081C104.355 89.6516 101.398 91.1436 98.2059 91.5216C95.0137 91.8996 91.7904 91.1393 89.1034 89.3746C86.4165 87.6099 84.4382 84.9538 83.5167 81.8739C82.5952 78.7941 82.7897 75.4878 84.0658 72.5372C85.3419 69.5866 87.6179 67.1808 90.4932 65.7432C93.3684 64.3056 96.6586 63.9284 99.7846 64.678C102.911 65.4276 105.672 67.256 107.583 69.8412" fill="white"/>
<path d="M109.947 74.959C110.219 76.1895 110.317 77.4524 110.236 78.7101C110.059 81.92 108.756 84.9646 106.555 87.3081C104.355 89.6516 101.398 91.1436 98.2059 91.5216C95.0137 91.8996 91.7904 91.1393 89.1034 89.3746C86.4165 87.6099 84.4382 84.9538 83.5167 81.8739C82.5952 78.7941 82.7897 75.4878 84.0658 72.5372C85.3419 69.5866 87.6179 67.1808 90.4932 65.7432C93.3684 64.3056 96.6586 63.9284 99.7846 64.678C102.911 65.4276 105.672 67.256 107.583 69.8412" stroke="black" stroke-width="1.39667" stroke-linecap="round" stroke-linejoin="round"/>
<path d="M91.8012 89.624C99.349 89.624 105.468 83.5049 105.468 75.9566C105.468 68.4083 99.349 62.2892 91.8012 62.2892C84.2534 62.2892 78.1346 68.4083 78.1346 75.9566C78.1346 83.5049 84.2534 89.624 91.8012 89.624Z" fill="black"/>
<path d="M93.7764 62.4389C93.7764 62.4389 101.757 62.1396 107.005 66.9182C107.005 66.9182 104.71 72.9039 96.3103 74.3505L93.7764 62.4389Z" fill="black"/>
<path d="M107.583 69.8412C107.583 69.8412 111.014 71.3276 111.663 72.0958C111.208 73.1355 110.625 74.1141 109.927 75.0089" fill="white"/>
<path d="M107.583 69.8412C107.583 69.8412 111.014 71.3276 111.663 72.0958C111.208 73.1355 110.625 74.1141 109.927 75.0089" stroke="black" stroke-width="1.39667" stroke-linecap="round" stroke-linejoin="round"/>
<path d="M105.238 73.5225C105.238 73.5225 107.892 91.0905 92.6192 117.557C92.6192 117.557 54.5324 124.89 42.4819 94.0036C42.4819 94.0036 71.3114 90.2625 80.3892 68.5144L105.238 73.5225Z" fill="black"/>
<path d="M39.3695 102.872C39.3695 102.872 58.7022 101.196 69.9247 92.7865" stroke="white" stroke-width="1.39667" stroke-linecap="round" stroke-linejoin="round"/>
<path d="M99.8415 276.059C99.8415 276.059 105.398 294.306 107.183 299.294C107.183 299.294 96.0607 297.109 87.7211 281.227M84.7484 276.857C84.0873 281.849 82.7448 286.726 80.7582 291.353M31.5386 163.478C31.5386 163.478 24.7652 168.466 25.9623 169.833C27.1593 171.199 35.1697 163.847 35.1697 163.847M159.286 45.0704C159.562 47.057 159.139 49.0777 158.089 50.7867M150.348 43.8732L153.63 34.1265L158.727 34.5455L156.134 44.1925" stroke="black" stroke-width="1.39667" stroke-linecap="round" stroke-linejoin="round"/>
<path d="M81.7958 183.66L79.4514 223.435" stroke="white" stroke-width="1.39667" stroke-linecap="round" stroke-linejoin="round"/>
<path d="M65.4058 110.315L36.3469 154.08L44.9958 164.555L56.0687 150.928M59.8195 168.945C58.0338 165.124 64.1589 162.321 72.9374 160.295C73.9349 160.056 75.0223 159.827 76.1096 159.617C81.3069 158.619 87.1526 157.781 92.709 157.163M64.3284 131.075L59.5102 167.109M144.592 81.0445L158.089 59.7852L147.664 55.266C147.664 55.266 127.015 78.9196 106.136 93.3052L98.2355 96.2981" stroke="black" stroke-width="1.39667" stroke-linecap="round" stroke-linejoin="round"/>
<path d="M214.78 203.542H223.878V299.294H214.78V203.542ZM125.259 203.542H134.357V299.294H125.259V203.542Z" fill="#FBF0F5"/>
<path d="M44.9259 299.294H246.014" stroke="black" stroke-width="1.39667" stroke-linecap="round" stroke-linejoin="round"/>
</g>
<defs>
<clipPath id="clip0_9_119">
<rect width="252.312" height="300" fill="white" transform="translate(0.84375)"/>
</clipPath>
</defs>
</svg>
