<svg width="290" height="300" viewBox="0 0 290 300" fill="none" xmlns="http://www.w3.org/2000/svg">
<g clip-path="url(#clip0_9_266)">
<path d="M241.814 209.73C244.069 210.469 244.348 211.726 242.193 213.023C240.559 213.869 238.801 214.451 236.985 214.749M241.375 204.383C242.268 204.539 243.126 204.853 243.909 205.311C246.303 206.897 243.49 209.212 237.624 210.499" stroke="#EBCFDD" stroke-width="1.39674" stroke-linecap="round" stroke-linejoin="round"/>
<path d="M236.935 195.873C243.56 195.823 248.508 197.2 248.738 199.404C248.967 201.609 243.989 204.153 237.055 205.39" stroke="#EBCFDD" stroke-width="1.39674" stroke-linecap="round" stroke-linejoin="round"/>
<path d="M115.516 0.000488281H234.421V260.033H115.516V0.000488281Z" fill="#D6F9E9"/>
<path d="M113.48 25.1018H236.945" stroke="white" stroke-width="1.39674" stroke-linecap="round" stroke-linejoin="round"/>
<path d="M205.441 150.329C204.054 163.528 209.431 189.976 225.293 191.633C242.432 193.418 251.87 168.527 253.226 155.317C253.554 152.178 253.26 149.005 252.361 145.98C251.463 142.954 249.977 140.135 247.989 137.684C246.001 135.233 243.55 133.197 240.775 131.693C238 130.189 234.956 129.247 231.818 128.919C225.478 128.258 219.136 130.142 214.185 134.157C211.734 136.145 209.698 138.596 208.195 141.371C206.691 144.146 205.748 147.19 205.421 150.329H205.441Z" fill="white"/>
<path d="M45.0339 75.4142C56.1855 75.4142 65.2256 66.3735 65.2256 55.2214C65.2256 44.0692 56.1855 35.0286 45.0339 35.0286C33.8823 35.0286 24.8422 44.0692 24.8422 55.2214C24.8422 66.3735 33.8823 75.4142 45.0339 75.4142Z" fill="black"/>
<path d="M36.3348 104.965C50.3569 104.965 61.7241 93.5974 61.7241 79.5745C61.7241 65.5516 50.3569 54.1838 36.3348 54.1838C22.3126 54.1838 10.9454 65.5516 10.9454 79.5745C10.9454 93.5974 22.3126 104.965 36.3348 104.965Z" fill="black"/>
<path d="M58.2024 103.578C72.2246 103.578 83.5917 92.2107 83.5917 78.1878C83.5917 64.1649 72.2246 52.7971 58.2024 52.7971C44.1803 52.7971 32.8131 64.1649 32.8131 78.1878C32.8131 92.2107 44.1803 103.578 58.2024 103.578Z" fill="black"/>
<path d="M49.2739 73.4189C49.2739 73.4189 48.376 78.3375 47.6577 79.5746L45.9218 133.548L61.7049 138.078L64.6979 132.89L61.7049 79.5746C61.1654 77.5684 60.9135 75.4959 60.9566 73.4189H49.2739Z" fill="white"/>
<path d="M77.4665 136.073L83.1828 279.178H52.4263L53.7232 199.514L43.1684 282.929L7.54358 275.427L26.0194 184.15L30.6683 138.327L77.4665 136.073Z" fill="black"/>
<path d="M60.028 74.8256C71.1796 74.8256 80.2198 65.7849 80.2198 54.6327C80.2198 43.4806 71.1796 34.4399 60.028 34.4399C48.8765 34.4399 39.8363 43.4806 39.8363 54.6327C39.8363 65.7849 48.8765 74.8256 60.028 74.8256Z" fill="black"/>
<path d="M55.3393 76.9207C65.3779 76.9207 73.5158 68.7824 73.5158 58.7432C73.5158 48.704 65.3779 40.5657 55.3393 40.5657C45.3006 40.5657 37.1627 48.704 37.1627 58.7432C37.1627 68.7824 45.3006 76.9207 55.3393 76.9207Z" fill="white" stroke="black" stroke-width="1.39674" stroke-linecap="round" stroke-linejoin="round"/>
<path d="M59.5791 39.6179C59.5791 39.6179 49.7526 58.4339 31.2468 60.6288L32.1846 50.1234L43.5873 40.5657L59.5791 39.6179Z" fill="black"/>
<path d="M58.0428 40.905C58.0428 40.905 66.2936 53.6552 75.0032 58.1547L72.948 45.185L63.9191 39.6479L58.0428 40.905Z" fill="black"/>
<path d="M36.3247 56.7378H82.8236L66.7819 63.083L62.4622 58.6234H58.6214L54.2918 63.6516L36.3247 56.7378Z" fill="black"/>
<path d="M83.5917 55.9897H33.7109L48.2961 62.1653" stroke="white" stroke-width="1.39674" stroke-linecap="round" stroke-linejoin="round"/>
<path d="M61.7141 79.5745C70.1905 81.7556 77.8139 86.4384 83.5918 93.0131C93.568 104.147 101.619 122.584 101.619 122.584C101.619 122.584 99.8929 135.683 88.5699 148.653L80.1999 138.327L84.5096 123.871L80.1999 116.628L67.4504 103.578L61.7141 79.5745ZM47.6677 79.5745C47.6677 79.5745 33.0825 85.7101 23.8646 98.5302C14.6466 111.35 8.31174 129.697 7.54358 133.329C7.54358 133.329 13.1103 146.009 40.9537 146.199L39.8364 131.992L27.6056 126.804L47.6677 79.5745Z" fill="#EBCFDD"/>
<path d="M61.714 79.5745L68.1287 195.593C68.3438 199.509 69.6941 203.277 72.0149 206.437C74.3356 209.598 77.5263 212.014 81.1975 213.392L87.6919 215.826L80.1999 108.397L61.714 79.5745ZM47.6676 79.5745V192.74C47.6676 197.218 46.1789 201.57 43.4357 205.11C40.6925 208.649 36.8504 211.177 32.5138 212.294L18.8265 215.826L27.6056 119.282L39.8363 93.0929L47.6676 79.5745Z" fill="#EBCFDD"/>
<path d="M57.1848 125.248H74.703V141.54C74.703 142.966 74.1364 144.334 73.128 145.342C72.1196 146.351 70.7519 146.917 69.3258 146.917H62.562C61.1359 146.917 59.7682 146.351 58.7598 145.342C57.7513 144.334 57.1848 142.966 57.1848 141.54V125.248ZM39.9061 132.87C39.9061 132.87 48.2961 129.578 51.7877 130.585C53.6932 131.144 53.2642 133.578 53.2642 133.578C53.2642 133.578 56.257 133.419 56.3867 136.122C56.5164 138.826 52.3963 140.851 52.3963 140.851C52.3963 140.851 52.107 144.842 47.1588 145.64C45.0351 146.021 42.8482 145.828 40.8239 145.081L39.9061 132.87Z" fill="white"/>
<path d="M39.9061 132.87C39.9061 132.87 48.2965 129.578 51.7884 130.585C53.6939 131.144 53.2649 133.578 53.2649 133.578C53.2649 133.578 56.2579 133.419 56.3876 136.122C56.5173 138.826 52.3969 140.851 52.3969 140.851C52.3969 140.851 52.1076 144.842 47.1592 145.64C45.0354 146.021 42.8483 145.828 40.824 145.081M52.4269 140.801C51.4166 141.242 50.3634 141.576 49.2842 141.799M53.2649 133.528C53.2649 133.528 51.3693 134.047 49.9626 134.386" stroke="black" stroke-width="1.39674" stroke-linecap="round" stroke-linejoin="round"/>
<path d="M80.2002 138.327C81.4282 138.57 82.5892 139.075 83.6035 139.809C84.6178 140.543 85.4614 141.487 86.0764 142.577C88.5207 146.458 88.1616 152.793 84.2707 156.136C80.3798 159.478 76.4689 158.131 74.6731 154.689C72.8773 151.247 75.4313 143.934 80.2002 138.327Z" fill="white"/>
<path d="M80.2002 138.327C81.4282 138.57 82.5892 139.075 83.6035 139.809C84.6178 140.543 85.4614 141.487 86.0764 142.577C88.5207 146.458 88.1616 152.793 84.2707 156.136C80.3798 159.478 76.4689 158.131 74.6731 154.689C72.8773 151.247 75.4313 143.934 80.2002 138.327Z" stroke="black" stroke-width="1.39674" stroke-linecap="round" stroke-linejoin="round"/>
<path d="M79.8507 145.77C79.8507 145.77 73.5259 153.751 76.5387 156.934C78.3443 158.829 81.1875 154.599 83.1828 150.948M53.7232 133.548C53.8715 132.663 54.2799 131.843 54.8964 131.19C55.5129 130.538 56.3096 130.085 57.1849 129.887M78.3344 282.81C78.3344 282.81 83.9011 295.989 86.874 299.141C86.874 299.141 73.1368 301.556 60.6965 287.628M57.2547 281.882C57.2547 281.882 56.2571 291.03 57.2547 294.851M17.5097 280.535C17.5097 280.535 8.03239 293.315 1.08899 295.081C1.08899 295.081 15.4547 298.842 26.189 290.482M34.7086 284.795C34.7086 284.795 32.3443 292.776 31.0773 295.769" stroke="black" stroke-width="1.39674" stroke-linecap="round" stroke-linejoin="round"/>
<path d="M38.0905 147.296C31.8275 147.064 25.6193 146.038 19.6146 144.243M43.8068 86.239C43.8068 86.239 40.2952 92.8536 40.385 94.6294C40.4748 96.4052 43.6073 97.4728 43.8068 99.6177C44.0063 101.763 40.6843 105.694 40.8838 108.248C41.0833 110.802 49.2737 120.509 49.2737 120.509" stroke="white" stroke-width="1.39674" stroke-linecap="round" stroke-linejoin="round"/>
<path d="M266.193 118.638C268.394 105.867 254.425 92.7984 234.993 89.4486C215.56 86.0988 198.022 93.7363 195.821 106.507C193.62 119.279 207.589 132.347 227.021 135.697C246.454 139.047 263.991 131.409 266.193 118.638Z" fill="white"/>
<path d="M266.459 113.843L269.993 114.974C270.601 115.169 271.106 115.596 271.398 116.163C271.69 116.73 271.745 117.39 271.55 117.997L269.288 125.067C269.093 125.674 268.665 126.179 268.099 126.471C267.532 126.763 266.872 126.818 266.265 126.623L262.73 125.492L266.459 113.843Z" fill="#EBCFDD"/>
<path d="M197.594 98.2118L201.128 99.3433L197.402 110.983L193.868 109.852C193.26 109.657 192.755 109.229 192.463 108.662C192.171 108.096 192.116 107.436 192.311 106.829L194.574 99.7592C194.77 99.1543 195.198 98.6519 195.764 98.3619C196.33 98.0719 196.988 98.0179 197.594 98.2118Z" fill="white"/>
<path d="M197.31 98.1312C197.31 98.1312 204.603 73.5886 214.51 69.0093" stroke="white" stroke-width="1.39674" stroke-linecap="round" stroke-linejoin="round"/>
<path d="M216.411 69.0537C217.315 68.536 217.799 67.6822 217.492 67.1467C217.185 66.6113 216.204 66.5969 215.3 67.1146C214.397 67.6323 213.913 68.4861 214.22 69.0216C214.527 69.557 215.508 69.5714 216.411 69.0537Z" fill="white" stroke="white" stroke-width="1.39674" stroke-linecap="round" stroke-linejoin="round"/>
<path d="M234.99 89.4514L234.421 89.3616V189.917C245.794 184.16 252.139 165.973 253.246 155.317C253.632 151.671 253.175 147.984 251.911 144.542C250.646 141.099 248.608 137.994 245.954 135.464C256.758 133.139 264.759 126.984 266.195 118.633C268.4 105.863 254.423 92.7836 234.99 89.4514Z" fill="#EBCFDD"/>
<path d="M268.64 114.443C268.64 114.443 275.932 89.9003 285.829 85.311" stroke="black" stroke-width="1.39674" stroke-linecap="round" stroke-linejoin="round"/>
<path d="M287.748 85.3576C288.651 84.8399 289.135 83.9861 288.828 83.4507C288.522 82.9152 287.54 82.9008 286.637 83.4185C285.733 83.9363 285.249 84.79 285.556 85.3255C285.863 85.861 286.844 85.8753 287.748 85.3576Z" fill="black" stroke="black" stroke-width="1.39674" stroke-linecap="round" stroke-linejoin="round"/>
<path d="M256.209 111.979C255.486 108.584 253.445 105.616 250.534 103.726C247.623 101.837 244.081 101.181 240.686 101.902C235.332 102.807 229.829 101.82 225.124 99.1087C222.197 97.4441 218.742 96.971 215.476 97.7879C212.21 98.6047 209.385 100.649 207.586 103.495C205.788 106.341 205.156 109.771 205.821 113.071C206.486 116.372 208.397 119.289 211.157 121.217C216.366 124.337 222.088 126.506 228.057 127.622C234.041 128.662 240.163 128.621 246.133 127.502C249.528 126.779 252.496 124.738 254.385 121.827C256.275 118.916 256.931 115.373 256.209 111.979Z" fill="white"/>
<path d="M241.883 111.48C242.278 111.22 242.729 111.058 243.199 111.005C243.669 110.953 244.145 111.014 244.587 111.181C245.029 111.348 245.427 111.614 245.749 111.961C246.071 112.307 246.308 112.723 246.443 113.176" stroke="black" stroke-width="1.39674" stroke-linecap="round" stroke-linejoin="round"/>
<path d="M215.576 107.439C215.883 107.078 216.271 106.794 216.708 106.612C217.146 106.43 217.62 106.354 218.093 106.391C218.565 106.428 219.022 106.577 219.426 106.825C219.829 107.073 220.168 107.414 220.415 107.818" stroke="#D6F9E9" stroke-width="1.39674" stroke-miterlimit="10" stroke-linecap="round"/>
<path d="M163.251 159.398H226.939V198.746H163.251V159.398ZM135.089 81.6497H187.932V134.496H135.089V81.6497Z" fill="#EBCFDD"/>
<path d="M248.319 142.158C248.769 141.367 249.507 140.779 250.379 140.516C251.25 140.253 252.19 140.335 253.003 140.744C253.816 141.154 254.441 141.861 254.748 142.718C255.055 143.575 255.022 144.518 254.654 145.351C254.345 145.969 249.266 155.776 237.055 164.526" stroke="black" stroke-width="1.39674" stroke-linecap="round" stroke-linejoin="round"/>
<path d="M251.142 152.285C255.197 152.285 258.484 148.997 258.484 144.942C258.484 140.886 255.197 137.599 251.142 137.599C247.086 137.599 243.799 140.886 243.799 144.942C243.799 148.997 247.086 152.285 251.142 152.285Z" fill="#EBCFDD"/>
<path d="M209.202 149.182C213.257 149.182 216.545 145.894 216.545 141.839C216.545 137.784 213.257 134.496 209.202 134.496C205.147 134.496 201.859 137.784 201.859 141.839C201.859 145.894 205.147 149.182 209.202 149.182Z" fill="white"/>
<path d="M212.139 178.758C216.645 175.863 218.982 171.468 217.359 168.942C215.736 166.415 210.767 166.714 206.261 169.609C201.755 172.504 199.419 176.899 201.042 179.426C202.665 181.952 207.633 181.653 212.139 178.758Z" fill="white"/>
<path d="M201.36 179.81L207.686 178.064" stroke="#EBCFDD" stroke-width="1.39674" stroke-linecap="round" stroke-linejoin="round"/>
<path d="M225.124 99.1088C222.649 97.5283 219.716 96.8255 216.794 97.1134C213.872 97.4013 211.132 98.6631 209.014 100.696C206.896 102.729 205.523 105.415 205.115 108.323C204.708 111.23 205.29 114.191 206.767 116.728" stroke="#D6F9E9" stroke-width="1.39674" stroke-miterlimit="10" stroke-linecap="round"/>
<path d="M230.84 168.467C225.235 171.618 219.237 174.014 213.002 175.59C212.715 175.66 212.42 175.697 212.125 175.7C211.266 175.691 210.439 175.371 209.797 174.8C209.156 174.228 208.744 173.444 208.637 172.591C208.529 171.739 208.735 170.877 209.215 170.164C209.695 169.452 210.417 168.937 211.247 168.716C217.962 167.04 224.362 164.291 230.201 160.575" stroke="white" stroke-width="1.39674" stroke-linecap="round" stroke-linejoin="round"/>
<path d="M266.365 114.543C265.906 109.385 262.973 104.347 258.274 100.106M253.057 133.209C258.633 130.785 262.883 127.113 265.028 122.544M253.366 151.935C253.405 153.064 253.365 154.194 253.246 155.317C252.16 164.342 249.057 173.006 244.168 180.668C242.118 183.49 239.729 186.05 237.055 188.29M258.484 144.942C258.482 146.498 257.986 148.014 257.066 149.27C256.145 150.525 254.85 151.455 253.366 151.925" stroke="black" stroke-width="1.39674" stroke-linecap="round" stroke-linejoin="round"/>
<path d="M258.484 144.942C258.484 145.906 258.294 146.86 257.925 147.75C257.555 148.641 257.014 149.449 256.333 150.13C255.651 150.812 254.841 151.351 253.95 151.719C253.06 152.087 252.105 152.276 251.141 152.275C250.767 152.279 250.394 152.252 250.024 152.195C249.185 152.068 248.374 151.795 247.63 151.387M266.455 113.854L269.138 114.712C269.969 114.98 270.66 115.566 271.06 116.342C271.46 117.118 271.537 118.021 271.273 118.853L269.547 124.22C269.416 124.632 269.204 125.015 268.925 125.345C268.646 125.675 268.304 125.948 267.92 126.146C267.535 126.344 267.115 126.465 266.684 126.501C266.253 126.537 265.819 126.487 265.407 126.355L263.143 125.627" stroke="black" stroke-width="1.39674" stroke-linecap="round" stroke-linejoin="round"/>
<path d="M182.476 115.249C185.067 113.731 184.972 108.754 182.265 104.133C179.557 99.5124 175.262 96.9973 172.671 98.5155C170.08 100.034 170.175 105.011 172.883 109.631C175.59 114.252 179.885 116.767 182.476 115.249Z" fill="white"/>
<path d="M217.123 150.209C216.406 150.286 215.682 150.143 215.048 149.8C190.436 136.472 177.647 114.064 177.138 113.116C176.91 112.71 176.764 112.263 176.709 111.8C176.654 111.338 176.691 110.869 176.817 110.421C177.071 109.515 177.675 108.748 178.495 108.287C179.315 107.827 180.285 107.711 181.19 107.966C182.096 108.22 182.863 108.824 183.323 109.644C183.483 109.924 195.734 131.254 218.449 143.565C219.111 143.927 219.64 144.491 219.96 145.174C220.28 145.858 220.374 146.625 220.228 147.366C220.083 148.106 219.705 148.781 219.15 149.292C218.596 149.803 217.892 150.125 217.143 150.209H217.123Z" fill="white"/>
<path d="M174.305 97.5027L177.128 102.83" stroke="#EBCFDD" stroke-width="1.39674" stroke-linecap="round" stroke-linejoin="round"/>
</g>
<defs>
<clipPath id="clip0_9_266">
<rect width="289.219" height="300" fill="white" transform="translate(0.390625)"/>
</clipPath>
</defs>
</svg>
