<svg width="250" height="301" viewBox="0 0 250 301" fill="none" xmlns="http://www.w3.org/2000/svg">
<g clip-path="url(#clip0_9_222)">
<path d="M179.516 61.0407C179.516 61.0407 219.513 48.5808 233.332 68.3207C247.151 88.0605 222.393 117.08 229.053 132.32C235.712 147.56 262.58 182.74 232.852 200.11C203.124 217.479 194.785 171 194.785 171" stroke="black" stroke-width="5.41996" stroke-linecap="round" stroke-linejoin="round"/>
<path d="M175.479 68.9784L171.506 57.1793L177.657 55.108L181.63 66.9072L175.479 68.9784Z" fill="white"/>
<path d="M171.517 57.1708L175.487 68.9808L181.647 66.9108L178.087 56.3308" stroke="black" stroke-width="1.39999" stroke-linecap="round" stroke-linejoin="round"/>
<path d="M151.288 300.499H0.718675L0.718675 0.501193H151.288L151.288 300.499Z" fill="#C8C5F3"/>
<path d="M110.011 72.1309C110.007 78.5872 111.917 84.8997 115.5 90.2705C119.083 95.6413 124.177 99.8293 130.14 102.305C136.102 104.781 142.665 105.433 148.998 104.18C155.331 102.926 161.15 99.823 165.72 95.2626C170.29 90.7022 173.405 84.8893 174.672 78.5585C175.939 72.2278 175.301 65.6635 172.838 59.6955C170.375 53.7275 166.198 48.6236 160.836 45.0291C155.473 41.4346 149.165 39.5108 142.709 39.5009C138.419 39.4943 134.17 40.3333 130.204 41.97C126.239 43.6066 122.635 46.0087 119.598 49.0391C116.561 52.0695 114.152 55.6686 112.507 59.6309C110.862 63.5931 110.014 67.8407 110.011 72.1309Z" fill="white"/>
<path d="M89.3425 149.91L102.342 151.44C102.564 151.452 102.785 151.408 102.985 151.312C103.186 151.216 103.359 151.072 103.489 150.892C103.62 150.712 103.703 150.502 103.731 150.282C103.759 150.061 103.732 149.837 103.652 149.63L94.6522 114.98C94.5756 114.654 94.405 114.356 94.1616 114.125C93.9182 113.894 93.6125 113.74 93.2823 113.68L80.3431 112.16C80.1216 112.148 79.9004 112.19 79.6997 112.285C79.499 112.379 79.3252 112.523 79.194 112.702C79.0628 112.88 78.9784 113.089 78.9486 113.309C78.9188 113.529 78.9444 113.753 79.0232 113.96L88.0226 148.61C88.0956 148.93 88.2587 149.223 88.4926 149.453C88.7265 149.684 89.0214 149.842 89.3425 149.91Z" fill="black"/>
<path d="M145.659 102.951C153.998 102.951 160.758 96.1901 160.758 87.8506C160.758 79.5111 153.998 72.7506 145.659 72.7506C137.32 72.7506 130.56 79.5111 130.56 87.8506C130.56 96.1901 137.32 102.951 145.659 102.951Z" stroke="black" stroke-width="1.39999" stroke-linecap="round" stroke-linejoin="round"/>
<path d="M145.119 96.0506C148.621 96.0506 151.459 93.2121 151.459 89.7106C151.459 86.2091 148.621 83.3706 145.119 83.3706C141.618 83.3706 138.779 86.2091 138.779 89.7106C138.779 93.2121 141.618 96.0506 145.119 96.0506Z" fill="black"/>
<path d="M134.82 97.8906C138.321 97.8906 141.16 95.0521 141.16 91.5506C141.16 88.0491 138.321 85.2106 134.82 85.2106C131.318 85.2106 128.48 88.0491 128.48 91.5506C128.48 95.0521 131.318 97.8906 134.82 97.8906Z" fill="black"/>
<path d="M152.348 79.0607C149.218 78.0607 146.279 83.0607 136.779 83.3707C127.28 83.6807 126.4 74.9207 132.909 70.3707L135.279 72.7707C135.279 72.7707 138.629 66.9407 143.549 65.0007C144.119 66.1118 144.991 67.0397 146.065 67.6781C147.138 68.3166 148.37 68.6398 149.618 68.6107C154.278 68.7907 163.327 76.2607 160.748 87.3507C160.708 87.3307 157.978 80.8207 152.348 79.0607Z" fill="black"/>
<path d="M138.969 114.13C134.459 112.29 135.709 107.3 135.709 107.3L171.847 89.5605C171.847 89.5605 176.056 92.5605 173.297 100.33C173.297 100.33 178.946 102.83 182.356 123.46C185.766 144.09 186.436 154.34 183.146 156.31C183.146 156.31 187.576 173.04 177.676 191.45C167.777 209.86 162.827 213.56 162.827 213.56L170.557 246.039C170.557 246.039 169.167 254.389 158.958 263.209C148.748 272.029 142.419 271.399 142.419 271.399L140.249 267.229C140.249 267.229 142.249 254.549 145.969 246.349C145.969 246.349 132.83 231.969 130.66 213.72C131.269 206.806 133.611 200.158 137.469 194.39C137.469 194.39 135.469 195.78 127.11 199.03C127.11 199.03 128.19 217.58 122.62 228.559C122.62 228.559 109.621 234.749 89.2226 233.199L88.6026 229.029C88.6026 229.029 92.1524 221.029 105.451 216.81C105.451 216.81 103.602 194.08 106.851 185.11C106.851 185.11 122.31 169.64 138.239 162.84C138.239 162.84 136.429 160.52 136.949 151.08C136.949 151.08 130.82 154.18 124.95 154.33C124.95 154.33 115.361 155.26 103.762 147.53C103.762 147.53 103.452 148.3 100.822 147.84C98.192 147.38 97.112 144.59 97.112 144.59C95.1593 145.139 93.1107 145.257 91.1079 144.936C89.1051 144.615 87.1961 143.862 85.5129 142.73C79.5133 138.87 83.653 134.97 83.653 134.97C83.653 134.97 80.2732 132.26 82.2531 129.54C83.653 127.61 93.6023 135.99 97.922 131.11C98.1369 130.668 98.2616 130.187 98.2891 129.696C98.3166 129.205 98.2462 128.714 98.082 128.25C97.532 126.69 95.6421 118.8 95.6421 118.8C95.6421 118.8 103.262 117.3 106.391 122.27C107.321 121.805 108.353 121.585 109.391 121.63C110.671 121.81 111.591 123.63 111.591 123.63C111.591 123.63 119.79 124.83 125.49 129.06L138.569 118.75L138.969 114.13Z" fill="white"/>
<path d="M151.288 99.6505L171.847 89.5605C171.847 89.5605 176.056 92.5605 173.297 100.33C173.297 100.33 178.946 102.83 182.356 123.46C185.766 144.09 186.436 154.34 183.146 156.31C183.146 156.31 187.576 173.04 177.676 191.45C167.777 209.86 162.827 213.56 162.827 213.56L170.557 246.039C170.557 246.039 169.167 254.389 158.958 263.209C156.6 265.288 154.029 267.111 151.288 268.649V99.6505Z" fill="#D6F9E9"/>
<path d="M166.017 92.4205L171.847 89.5605C171.847 89.5605 176.057 92.5605 173.297 100.33C173.297 100.33 178.946 102.83 182.356 123.46C185.766 144.09 186.436 154.34 183.146 156.31C183.146 156.31 187.576 173.04 177.676 191.45C167.777 209.86 162.827 213.56 162.827 213.56L170.557 246.039C170.557 246.039 169.167 254.389 158.958 263.209C148.748 272.029 142.419 271.399 142.419 271.399L140.249 267.229" stroke="black" stroke-width="1.39999" stroke-linecap="round" stroke-linejoin="round"/>
<path d="M145.609 181.61C145.609 181.61 135.27 195.32 132.53 200.92M121.241 226.03C121.241 226.03 95.9321 231.36 88.6025 229.03M116.741 227.06L116.251 230.93M112.571 227.81L112.171 231.67M108.411 228.55L108.091 232.41M104.242 229.15L104.002 232.99M100.082 229.59L99.9218 233.42M95.9221 229.72L95.8421 233.54M91.7523 229.55V233.36" stroke="#F0EDFC" stroke-width="1.39999" stroke-linecap="round" stroke-linejoin="round"/>
<path d="M166.907 246.59C166.907 246.59 156.708 263.35 140.249 267.23M164.088 250.55L166.487 254.87M161.228 254.02L163.598 258.4M157.898 257.37L160.248 261.81M154.558 260.03L156.878 264.52M151.288 262.67L153.578 267.23M147.469 264.76L149.728 269.38M143.589 266.24L145.829 270.92M162.828 213.56C162.828 213.56 159.268 216.9 156.828 218.78M183.146 156.31C181.184 157.026 179.181 157.624 177.147 158.1" stroke="black" stroke-width="1.39999" stroke-linecap="round" stroke-linejoin="round"/>
<path d="M201.338 169.558L188.159 172.297L186.839 165.942L200.017 163.203L201.338 169.558Z" fill="white"/>
<path d="M183.146 156.31C186.436 154.31 185.776 144.09 182.356 123.46C180.546 112.53 178.116 106.69 176.216 103.61L192.015 100.33C192.436 100.243 192.87 100.239 193.293 100.319C193.715 100.399 194.118 100.562 194.477 100.798C194.836 101.034 195.146 101.338 195.387 101.694C195.629 102.05 195.798 102.449 195.885 102.87L207.424 158.38C207.512 158.801 207.516 159.235 207.436 159.658C207.356 160.08 207.193 160.483 206.957 160.842C206.721 161.202 206.417 161.511 206.061 161.753C205.705 161.994 205.306 162.164 204.885 162.25L184.126 166.57C184.222 163.123 183.892 159.677 183.146 156.31Z" fill="black" stroke="black" stroke-width="1.39999" stroke-linecap="round" stroke-linejoin="round"/>
<path d="M200.006 163.21L186.836 165.95L188.156 172.31L200.006 169.84" stroke="black" stroke-width="1.39999" stroke-linecap="round" stroke-linejoin="round"/>
<path d="M145.609 119.08C145.609 119.08 130.33 129.46 125.61 133.41C125.61 133.41 114.111 131.98 109.991 132.58C109.012 131.448 107.705 130.647 106.251 130.29C103.642 129.56 100.072 131.88 98.332 139.61M104.262 130.33C104.262 130.33 101.432 124.27 95.9221 121.96M82.053 134.4C82.053 134.4 85.6528 136.5 87.3926 137.4M88.1726 141.61C86.0896 141.282 84.0412 140.763 82.053 140.06M111.541 122.65C111.541 122.65 111.541 127.22 111.061 128.65M106.381 121.26C106.381 121.26 106.141 125 105.712 127.59" stroke="#F0EDFC" stroke-width="1.39999" stroke-linecap="round" stroke-linejoin="round"/>
<path d="M169.507 90.7108C171.562 87.7437 173.11 84.4556 174.087 80.9808M175.297 72.1308C175.307 65.7487 173.435 59.5054 169.917 54.1808" stroke="black" stroke-width="1.39999" stroke-linecap="round" stroke-linejoin="round"/>
<path d="M95.9222 120L96.8922 123.91L93.7122 122.88V120.82L95.9222 120Z" fill="black"/>
</g>
<defs>
<clipPath id="clip0_9_222">
<rect width="248.562" height="300" fill="white" transform="translate(0.71875 0.5)"/>
</clipPath>
</defs>
</svg>
