<svg width="700" height="287" viewBox="0 0 700 287" fill="none" xmlns="http://www.w3.org/2000/svg">
<g clip-path="url(#clip0_41_11)">
<path d="M106.469 305.546C98.346 310.756 89.9755 314.163 81.3577 315.767C72.7399 317.372 64.3204 317.323 56.0993 315.622C47.8122 313.818 40.1362 310.46 33.0712 305.548C25.9402 300.533 19.7999 294.011 14.6504 285.981C9.5009 277.952 6.16739 269.702 4.64989 261.232C3.06636 252.659 3.21622 244.282 5.09947 236.101C6.91671 227.817 10.3517 220.093 15.4045 212.93C20.4573 205.767 26.9957 199.612 35.0197 194.466C43.1428 189.256 51.4638 185.881 59.9825 184.34C68.6003 182.736 77.0528 182.836 85.3399 184.64C93.561 186.341 101.237 189.699 108.368 194.714C115.433 199.626 121.54 206.097 126.69 214.126C131.839 222.156 135.206 230.457 136.789 239.03C138.373 247.603 138.223 255.98 136.34 264.161C134.457 272.342 130.989 280.015 125.936 287.178C120.982 294.277 114.493 300.4 106.469 305.546ZM95.0312 288.039C100.282 284.672 104.541 280.632 107.811 275.92C111.08 271.208 113.26 266.106 114.351 260.612C115.375 255.015 115.326 249.381 114.205 243.708C113.116 237.868 110.789 232.169 107.224 226.61C103.659 221.052 99.483 216.611 94.696 213.289C89.942 209.8 84.8412 207.406 79.3935 206.105C73.8798 204.702 68.2998 204.503 62.6537 205.509C57.0075 206.515 51.5593 208.702 46.309 212.069C41.0587 215.436 36.7988 219.476 33.5294 224.188C30.359 228.836 28.2121 233.99 27.0886 239.65C25.9982 245.144 25.9973 250.81 27.086 256.65C28.2077 262.323 30.5511 267.938 34.1161 273.497C37.6152 278.953 41.7417 283.425 46.4956 286.914C51.3487 290.339 56.5321 292.754 62.0458 294.157C67.4935 295.457 73.0404 295.605 78.6865 294.599C84.3327 293.593 89.7809 291.406 95.0312 288.039ZM181.825 255.038L112.505 146.951L155.3 119.505C164.513 113.597 173.379 110.09 181.897 108.985C190.515 107.817 198.456 108.971 205.719 112.449C212.982 115.926 219.156 121.628 224.239 129.554C229.323 137.481 231.93 145.47 232.061 153.522C232.192 161.574 229.929 169.272 225.272 176.617C220.715 183.898 213.829 190.493 204.617 196.402L172.52 216.986L175.098 202.04L201.143 242.65L181.825 255.038ZM176.484 204.201L161.627 200.001L192.832 179.988C201.351 174.524 206.552 168.574 208.435 162.136C210.351 155.532 209.131 148.833 204.773 142.039C200.35 135.142 194.771 131.238 188.035 130.327C181.399 129.353 173.821 131.598 165.302 137.062L134.097 157.075L136.378 141.665L176.484 204.201ZM265.52 112.232L317.231 79.0684L327.827 95.5903L276.116 128.754L265.52 112.232ZM296.715 157.602L355.409 119.959L366.203 136.79L288.192 186.822L218.872 78.7346L294.803 30.0371L305.597 46.8679L248.983 83.1765L296.715 157.602ZM387.738 122.979L318.417 14.8923L334.317 4.69535L452.926 46.0866L445.05 51.1374L391.674 -32.0898L410.842 -44.3833L480.163 63.704L464.263 73.9009L345.654 32.5097L353.53 27.4589L406.906 110.686L387.738 122.979ZM274.646 313.549L205.326 205.462L221.226 195.265L317.299 245.008L308.978 250.344L303.101 142.756L319 132.559L388.469 240.551L370.192 252.273L319.836 174.082L323.699 171.604L327.945 261.934L319.326 267.461L238.407 226.305L242.864 223.446L293.072 301.732L274.646 313.549ZM389.435 150.802L441.145 117.638L451.742 134.16L400.031 167.324L389.435 150.802ZM420.63 196.172L479.324 158.529L490.118 175.36L412.107 225.391L342.786 117.304L418.718 68.6067L429.512 85.4375L372.898 121.746L420.63 196.172ZM507.195 164.408L437.874 56.3208L453.774 46.1239L572.383 87.5151L564.507 92.5659L511.131 9.33876L530.299 -2.95471L599.62 105.133L583.72 115.329L465.111 73.9382L472.987 68.8874L526.363 152.115L507.195 164.408ZM668.751 62.9756C654.486 72.1243 640.618 75.1343 627.147 72.0058C613.775 68.8137 602.039 59.3428 591.938 43.5929L552.822 -17.3992L572.139 -29.7879L610.76 30.4321C617.89 41.5497 625.351 48.1692 633.143 50.2908C641.034 52.3489 649.19 50.6778 657.61 45.2775C666.03 39.8773 670.901 33.1939 672.223 25.2273C673.545 17.2608 670.641 7.71874 663.511 -3.39881L624.89 -63.6188L643.91 -75.817L683.026 -14.8249C693.127 0.924924 696.79 15.5738 694.014 29.1216C691.338 42.6058 682.916 53.8905 668.751 62.9756Z" fill="url(#paint0_linear_41_11)"/>
</g>
<defs>
<linearGradient id="paint0_linear_41_11" x1="75.3728" y1="173.871" x2="726.397" y2="354.994" gradientUnits="userSpaceOnUse">
<stop stop-color="#D9B6C8"/>
<stop offset="0.277681" stop-color="#C8C5F3"/>
<stop offset="1" stop-color="#64BF95"/>
</linearGradient>
<clipPath id="clip0_41_11">
<rect width="700" height="287" fill="white"/>
</clipPath>
</defs>
</svg>
