<svg width="1280" height="25" viewBox="0 0 1280 25" fill="none" xmlns="http://www.w3.org/2000/svg">
<rect y="13" width="1280" height="1" fill="black"/>
<g clip-path="url(#clip0_90_12)">
<path d="M44 8.47998H56V20.48H44V8.47998Z" fill="black"/>
<path d="M47 5.47998H59V17.48H47V5.47998Z" fill="black"/>
<path d="M47 5.47998L44 8.47998L56 20.48L59 17.48L47 5.47998Z" fill="black"/>
<path d="M48 6.47998H58V16.48H48V6.47998Z" fill="white"/>
</g>
<mask id="path-6-inside-1_90_12" fill="white">
<path d="M322.5 9.95996L326.036 13.4955L322.5 17.031L318.964 13.4955L322.5 9.95996Z"/>
</mask>
<path d="M326.036 13.4955L326.743 14.2026L327.45 13.4955L326.743 12.7884L326.036 13.4955ZM321.793 10.6671L325.328 14.2026L326.743 12.7884L323.207 9.25285L321.793 10.6671ZM325.328 12.7884L321.793 16.3239L323.207 17.7381L326.743 14.2026L325.328 12.7884Z" fill="black" mask="url(#path-6-inside-1_90_12)"/>
<rect x="327" y="11" width="4" height="5" fill="white"/>
<g clip-path="url(#clip1_90_12)">
<path d="M364 8.47998H376V20.48H364V8.47998Z" fill="black"/>
<path d="M367 5.47998H379V17.48H367V5.47998Z" fill="black"/>
<path d="M367 5.47998L364 8.47998L376 20.48L379 17.48L367 5.47998Z" fill="black"/>
<path d="M368 6.47998H378V16.48H368V6.47998Z" fill="white"/>
</g>
<mask id="path-13-inside-2_90_12" fill="white">
<path d="M642.5 9.95996L646.036 13.4955L642.5 17.031L638.964 13.4955L642.5 9.95996Z"/>
</mask>
<path d="M646.036 13.4955L646.743 14.2026L647.45 13.4955L646.743 12.7884L646.036 13.4955ZM641.793 10.6671L645.328 14.2026L646.743 12.7884L643.207 9.25285L641.793 10.6671ZM645.328 12.7884L641.793 16.3239L643.207 17.7381L646.743 14.2026L645.328 12.7884Z" fill="black" mask="url(#path-13-inside-2_90_12)"/>
<rect x="647" y="11" width="4" height="5" fill="white"/>
<g clip-path="url(#clip2_90_12)">
<path d="M684 8.47998H696V20.48H684V8.47998Z" fill="black"/>
<path d="M687 5.47998H699V17.48H687V5.47998Z" fill="black"/>
<path d="M687 5.47998L684 8.47998L696 20.48L699 17.48L687 5.47998Z" fill="black"/>
<path d="M688 6.47998H698V16.48H688V6.47998Z" fill="white"/>
</g>
<mask id="path-20-inside-3_90_12" fill="white">
<path d="M962.5 9.95996L966.036 13.4955L962.5 17.031L958.964 13.4955L962.5 9.95996Z"/>
</mask>
<path d="M966.036 13.4955L966.743 14.2026L967.45 13.4955L966.743 12.7884L966.036 13.4955ZM961.793 10.6671L965.328 14.2026L966.743 12.7884L963.207 9.25285L961.793 10.6671ZM965.328 12.7884L961.793 16.3239L963.207 17.7381L966.743 14.2026L965.328 12.7884Z" fill="black" mask="url(#path-20-inside-3_90_12)"/>
<rect x="967" y="11" width="4" height="5" fill="white"/>
<g clip-path="url(#clip3_90_12)">
<path d="M1004 8.47998H1016V20.48H1004V8.47998Z" fill="black"/>
<path d="M1007 5.47998H1019V17.48H1007V5.47998Z" fill="black"/>
<path d="M1007 5.47998L1004 8.47998L1016 20.48L1019 17.48L1007 5.47998Z" fill="black"/>
<path d="M1008 6.47998H1018V16.48H1008V6.47998Z" fill="white"/>
</g>
<defs>
<clipPath id="clip0_90_12">
<rect width="24" height="25" fill="white" transform="translate(40)"/>
</clipPath>
<clipPath id="clip1_90_12">
<rect width="24" height="25" fill="white" transform="translate(360)"/>
</clipPath>
<clipPath id="clip2_90_12">
<rect width="24" height="25" fill="white" transform="translate(680)"/>
</clipPath>
<clipPath id="clip3_90_12">
<rect width="24" height="25" fill="white" transform="translate(1000)"/>
</clipPath>
</defs>
</svg>
