<svg width="258" height="400" viewBox="0 0 258 400" fill="none" xmlns="http://www.w3.org/2000/svg">
<g clip-path="url(#clip0_9_96)">
<path d="M257.176 315.102L0.808652 315.102L0.808652 0.00977381L257.176 0.00977381L257.176 315.102Z" fill="url(#paint0_linear_9_96)"/>
<path d="M0.808594 40.7109H257.176" stroke="white" stroke-width="1.39832" stroke-linecap="round" stroke-linejoin="round"/>
<path d="M21.7222 11.8955H67.2149V29.9239H21.7222V11.8955ZM201.845 71.8736H242.085V89.902H201.845V71.8736Z" fill="white"/>
<path d="M37.6422 99.061C47.6757 99.061 55.8094 90.9268 55.8094 80.8928C55.8094 70.8587 47.6757 62.7245 37.6422 62.7245C27.6088 62.7245 19.4751 70.8587 19.4751 80.8928C19.4751 90.9268 27.6088 99.061 37.6422 99.061Z" fill="white"/>
<path d="M76.0837 69.7262H149.042V77.1672H76.0837V69.7262ZM76.0837 84.6083H173.411V92.0494H76.0837V84.6083ZM201.845 137.815H242.085V155.843H201.845V137.815Z" fill="white"/>
<path d="M37.6422 164.992C47.6757 164.992 55.8094 156.858 55.8094 146.824C55.8094 136.79 47.6757 128.656 37.6422 128.656C27.6088 128.656 19.4751 136.79 19.4751 146.824C19.4751 156.858 27.6088 164.992 37.6422 164.992Z" fill="white"/>
<path d="M76.0837 135.667H149.042V143.108H76.0837V135.667ZM76.0837 150.549H173.411V157.99H76.0837V150.549ZM201.845 203.745H242.085V221.774H201.845V203.745Z" fill="white"/>
<path d="M37.6422 230.933C47.6757 230.933 55.8094 222.799 55.8094 212.765C55.8094 202.731 47.6757 194.596 37.6422 194.596C27.6088 194.596 19.4751 202.731 19.4751 212.765C19.4751 222.799 27.6088 230.933 37.6422 230.933Z" fill="white"/>
<path d="M76.0837 201.598H149.042V209.039H76.0837V201.598ZM76.0837 216.48H173.411V223.921H76.0837V216.48ZM201.845 269.686H242.085V287.715H201.845V269.686Z" fill="white"/>
<path d="M37.6422 296.864C47.6757 296.864 55.8094 288.73 55.8094 278.696C55.8094 268.662 47.6757 260.527 37.6422 260.527C27.6088 260.527 19.4751 268.662 19.4751 278.696C19.4751 288.73 27.6088 296.864 37.6422 296.864Z" fill="white"/>
<path d="M76.0838 267.539H149.042V274.98H76.0838V267.539ZM76.0838 282.411H173.411V289.852H76.0838V282.411ZM233.526 354.345C233.526 343.937 213.641 346.255 213.641 337.236C213.641 331.193 224.337 327.058 231.388 324.98L230.12 323.702C230.749 323.602 229.86 323.442 229.86 323.442H28.1141C28.1141 323.442 27.2352 323.602 27.8645 323.702L26.5861 324.98C33.6372 327.058 44.3437 331.193 44.3437 337.236C44.3437 346.225 24.4587 343.937 24.4587 354.345C24.4587 364.263 35.2252 360.208 31.1503 370.855C31.0298 371.153 31.0298 371.486 31.1503 371.784L30.611 372.513V384.669C30.586 384.814 30.586 384.963 30.611 385.108C31.1603 387.755 33.1778 393.168 40.5385 393.168H52.8031C53.5202 395.036 54.7853 396.643 56.4323 397.778C58.0793 398.914 60.0311 399.525 62.0315 399.531H73.8466C73.8466 399.531 83.065 398.882 85.2722 393.168H172.712C174.919 398.882 184.148 399.531 184.148 399.531H195.963C197.963 399.523 199.914 398.912 201.561 397.777C203.208 396.641 204.473 395.035 205.191 393.168H217.396C224.757 393.168 226.774 387.755 227.323 385.108C227.353 384.963 227.353 384.814 227.323 384.669V372.513L226.774 371.784C226.836 371.637 226.868 371.479 226.868 371.32C226.868 371.16 226.836 371.002 226.774 370.855C222.749 360.208 233.526 364.263 233.526 354.345Z" fill="white"/>
<path d="M114.675 278.955C121.399 278.955 126.85 273.504 126.85 266.78C126.85 260.056 121.399 254.605 114.675 254.605C107.951 254.605 102.5 260.056 102.5 266.78C102.5 273.504 107.951 278.955 114.675 278.955Z" fill="white" stroke="black" stroke-width="1.39832" stroke-linecap="round" stroke-linejoin="round"/>
<path d="M128.877 251.289C128.612 248.543 127.299 246.005 125.211 244.202C123.123 242.4 120.421 241.47 117.666 241.608C114.911 241.746 112.315 242.939 110.417 244.941C108.519 246.943 107.465 249.599 107.474 252.357C107.483 252.914 107.346 253.464 107.076 253.951C106.806 254.438 106.413 254.846 105.936 255.134C104.15 256.173 102.673 257.671 101.66 259.473C100.647 261.275 100.134 263.315 100.174 265.382C100.204 268.462 101.457 271.405 103.657 273.562C105.857 275.719 108.823 276.913 111.904 276.883C114.984 276.852 117.927 275.599 120.083 273.399C122.24 271.199 123.435 268.233 123.404 265.152C123.403 264.711 123.377 264.271 123.324 263.834C123.257 263.287 123.335 262.733 123.553 262.227C123.771 261.721 124.119 261.283 124.563 260.957C126.058 259.858 127.242 258.388 127.999 256.693C128.755 254.998 129.058 253.136 128.877 251.289ZM142.301 249.321C149.841 248.582 155.814 252.817 156.782 257.971C157.751 263.124 159.609 266.041 162.425 267.789C165.242 269.537 170.495 272.713 170.006 278.955C169.516 285.198 162.915 290.152 154.255 291.231C145.596 292.309 138.116 292.979 134.231 284.419C130.346 275.859 137.147 270.905 135.1 266.141C133.052 261.376 132.573 259.039 134.331 255.054C136.088 251.069 140.633 249.481 142.301 249.321Z" fill="black"/>
<path d="M65.5071 323.202C65.5071 323.202 82.8353 284.768 95.9887 278.955C109.142 273.142 150.54 285.338 150.54 285.338L166.989 285.408C166.989 285.408 177.177 284.539 177.656 290.951C177.936 294.597 176.547 296.644 175.299 297.723C175.299 297.723 186.645 315.701 188.412 323.202H65.5071Z" fill="white"/>
<path d="M83.0552 290.941C87.3398 284.948 91.8641 279.874 96.0388 278.056C109.202 272.243 150.59 284.439 150.59 284.439M169.327 299.93C161.333 301.138 153.27 301.828 145.187 301.998M38.7309 344.147C37.2728 347.703 34.4064 356.842 39.1604 364.852M54.2814 359.489C54.5219 361.539 54.8955 363.57 55.4 365.572M53.792 343.997C53.7021 345.995 53.5922 349.83 53.792 354.175M69.1327 346.844C70.2812 349.611 72.6283 356.423 71.1302 362.875M28.0644 323.202H128.927M128.947 340.601C123.954 338.924 101.272 334.039 95.1 332.861C88.9278 331.682 82.7056 330.613 76.5134 329.615M47.3701 383.45H32.1592C31.9328 383.449 31.7091 383.499 31.5048 383.596C31.3005 383.694 31.121 383.836 30.9797 384.013C30.8384 384.19 30.739 384.397 30.6891 384.617C30.6391 384.838 30.6397 385.067 30.6911 385.288C31.3602 388.045 33.5375 392.929 40.5287 392.929H52.7333C53.4498 394.795 54.7134 396.401 56.3584 397.536C58.0034 398.671 59.953 399.283 61.9517 399.291H73.7768C73.7768 399.291 82.9952 398.642 85.2024 392.929H128.947M29.3028 347.184C29.3028 347.184 34.2965 342.719 51.9543 343.858C65.9367 344.767 79.17 349.641 85.9116 353.586C86.3276 353.829 86.6665 354.184 86.8895 354.611C87.1124 355.038 87.2101 355.519 87.1715 355.999C87.1329 356.48 86.9595 356.939 86.6712 357.325C86.3829 357.711 85.9915 358.007 85.542 358.18C75.5546 362.056 51.365 370.556 29.6124 362.325C29.6124 362.325 24.4189 359.838 24.4189 354.735C24.4189 349.631 29.3028 347.184 29.3028 347.184Z" stroke="black" stroke-width="1.39832" stroke-linecap="round" stroke-linejoin="round"/>
<path d="M31.2401 370.236C34.9055 360.068 24.3988 363.913 24.3988 354.105C24.3988 343.708 44.2837 346.015 44.2837 336.996C44.2837 332.172 28.0641 323.202 28.0641 323.202M128.947 367.899H113.097C112.806 367.899 112.519 367.841 112.25 367.73C111.982 367.618 111.738 367.455 111.533 367.249C111.328 367.043 111.165 366.798 111.055 366.529C110.945 366.26 110.889 365.972 110.89 365.681V356.392C110.889 356.102 110.945 355.814 111.055 355.545C111.165 355.276 111.328 355.031 111.533 354.825C111.738 354.619 111.982 354.456 112.25 354.344C112.519 354.233 112.806 354.175 113.097 354.175M25.1278 372.273C24.1036 373.752 23.4869 375.475 23.3401 377.267C23.3401 379.705 24.219 383.47 32.159 383.47M219.064 343.997C220.492 347.443 223.508 356.712 218.704 364.832M228.552 347.184C228.552 347.184 223.558 342.719 205.9 343.858C191.918 344.766 178.685 349.641 171.943 353.586C171.527 353.828 171.187 354.182 170.964 354.609C170.74 355.035 170.641 355.516 170.679 355.996C170.716 356.476 170.889 356.936 171.176 357.322C171.463 357.709 171.854 358.006 172.303 358.18C182.29 362.056 206.48 370.556 228.232 362.325C228.232 362.325 233.426 359.838 233.426 354.734C233.426 349.631 228.552 347.184 228.552 347.184Z" stroke="black" stroke-width="1.39832" stroke-linecap="round" stroke-linejoin="round"/>
<path d="M204.053 343.997C204.103 344.996 204.153 346.544 204.163 348.382V350.549C204.163 351.309 204.163 351.918 204.103 352.637C204.013 356.995 203.46 361.33 202.455 365.571M188.712 346.844C187.573 349.621 185.226 356.422 186.715 362.875M128.927 323.202H229.79C229.79 323.202 213.571 332.172 213.571 336.996C213.571 346.015 233.456 343.708 233.456 354.105C233.456 363.913 222.949 360.068 226.614 370.236M128.947 340.601C133.941 338.923 156.622 334.039 162.795 332.861C168.967 331.682 175.149 330.613 181.341 329.615M225.695 383.45C225.922 383.449 226.146 383.499 226.35 383.596C226.554 383.694 226.734 383.836 226.875 384.013C227.016 384.19 227.116 384.397 227.166 384.617C227.216 384.838 227.215 385.067 227.164 385.288C226.494 388.045 224.317 392.929 217.326 392.929H205.121C204.403 394.795 203.138 396.402 201.491 397.537C199.844 398.672 197.893 399.284 195.893 399.291H184.078C184.078 399.291 174.859 398.642 172.652 392.929H128.947M128.947 367.899H144.767C145.059 367.9 145.348 367.844 145.617 367.733C145.887 367.622 146.132 367.458 146.338 367.252C146.544 367.046 146.707 366.801 146.818 366.531C146.929 366.262 146.986 365.973 146.985 365.681" stroke="black" stroke-width="1.39832" stroke-linecap="round" stroke-linejoin="round"/>
<path d="M232.727 372.274C233.751 373.752 234.368 375.475 234.514 377.268C234.514 379.705 233.635 383.47 225.695 383.47M75.0051 304.675L65.5071 323.202M90.5655 383.45H167.279M52.7332 392.929H66.8154M205.121 392.929H196.802" stroke="black" stroke-width="1.39832" stroke-linecap="round" stroke-linejoin="round"/>
</g>
<defs>
<linearGradient id="paint0_linear_9_96" x1="257.176" y1="157.556" x2="0.808655" y2="157.556" gradientUnits="userSpaceOnUse">
<stop stop-color="#EBCFDD"/>
<stop offset="0.4167" stop-color="#C8C5F3"/>
<stop offset="1" stop-color="#D1EDE0"/>
</linearGradient>
<clipPath id="clip0_9_96">
<rect width="257.766" height="400" fill="white" transform="translate(0.109375)"/>
</clipPath>
</defs>
</svg>
