<svg width="248" height="301" viewBox="0 0 248 301" fill="none" xmlns="http://www.w3.org/2000/svg">
<g clip-path="url(#clip0_9_507)">
<path d="M235.37 271.013H241.82V275.104C241.821 275.722 241.7 276.334 241.465 276.905C241.229 277.476 240.884 277.995 240.447 278.432C240.011 278.87 239.493 279.217 238.922 279.453C238.351 279.69 237.74 279.812 237.122 279.812H225.178M203.938 276.776V280.847C203.938 281.464 203.816 282.075 203.58 282.645C203.344 283.215 202.998 283.733 202.562 284.169C202.126 284.605 201.608 284.951 201.038 285.187C200.468 285.423 199.857 285.545 199.24 285.545M193.875 281.155V285.226C193.875 286.475 193.379 287.672 192.496 288.555C191.613 289.438 190.416 289.934 189.167 289.934H171.859C171.653 289.934 171.456 289.852 171.31 289.707C171.164 289.561 171.083 289.364 171.083 289.158C171.084 289.029 171.117 288.902 171.18 288.789C171.242 288.676 171.332 288.58 171.441 288.511L177.064 284.938M156.083 295.01C156.083 296.259 155.587 297.456 154.704 298.339C153.821 299.222 152.624 299.718 151.375 299.718H130.822C130.616 299.718 130.419 299.636 130.273 299.491C130.127 299.345 130.046 299.148 130.046 298.942C130.047 298.813 130.08 298.686 130.143 298.573C130.205 298.46 130.295 298.364 130.404 298.295L148.22 290.939M240.645 230.195L246.906 263.747C247.047 264.645 246.991 265.562 246.744 266.436C246.497 267.31 246.063 268.12 245.473 268.81C244.883 269.5 244.15 270.055 243.325 270.435C242.501 270.816 241.603 271.013 240.695 271.013" stroke="black" stroke-width="1.39344" stroke-linecap="round" stroke-linejoin="round"/>
<path d="M232.364 237.451C231.064 238.06 229.688 238.492 228.274 238.735C221.446 239.919 213.105 238.625 207.372 234.535C204.115 232.345 201.785 229.026 200.833 225.218C198.145 214.121 205.401 201.809 205.59 201.49L199.121 205.113C198.882 204.376 198.752 203.272 199.877 200.803C200.427 199.628 201.049 198.488 201.738 197.389C204.804 192.413 204.237 187.735 203.56 182.171C203.435 181.274 203.385 180.369 203.411 179.464C203.53 175.701 205.252 173.681 208.895 172.287C210.14 171.781 211.486 171.571 212.827 171.674C214.168 171.778 215.466 172.192 216.618 172.885C219.655 171.961 222.904 172.011 225.91 173.028C228.917 174.046 231.529 175.98 233.379 178.558C240.536 187.755 237.58 195.14 238.356 199.569C239.132 203.998 244.258 206.954 244.945 214.34C245.338 219.967 243.816 225.562 240.625 230.215C238.57 233.324 235.717 235.823 232.364 237.451Z" fill="black"/>
<path d="M232.364 237.451C231.58 240.87 230.412 244.189 228.881 247.344C225.519 254.548 221.37 261.358 216.509 267.649M190.8 214.389C192.323 209.99 199.071 205.123 199.071 205.123L205.54 201.5M207.979 242.776L209.751 268.833C209.886 270.763 209.259 272.668 208.005 274.14C206.75 275.612 204.969 276.534 203.042 276.706" stroke="black" stroke-width="1.39344" stroke-linecap="round" stroke-linejoin="round"/>
<path d="M204.127 182.171C204.814 187.735 205.381 192.393 202.306 197.39C201.624 198.493 201.003 199.633 200.445 200.803C195.239 189.706 203.689 179.802 203.978 179.464C203.963 180.369 204.013 181.273 204.127 182.171Z" fill="white" stroke="black" stroke-width="1.39344" stroke-linecap="round" stroke-linejoin="round"/>
<path d="M175.731 170.784C176.83 173.034 178.713 174.804 181.026 175.761C187.486 178.289 190.591 187.078 190.561 192.015C190.561 197.897 186.719 202.814 181.942 205.392L178.637 205.252L169.072 204.864C168.077 202.147 171.202 197.827 170.207 195.458C168.883 192.283 166.335 195.09 164.862 194.055C161.946 192.015 166.196 188.969 164.325 183.893C163.916 182.798 163.449 181.434 163.021 179.912C161.488 174.447 160.702 167.281 167.002 165.818C171.541 164.783 174.238 167.898 175.731 170.784ZM108.846 247.016L114.499 247.653C112.986 249.454 111.513 251.196 110.189 252.838L103.77 252.769L82.4996 252.54L25.249 251.933L25.5675 243.214L25.7666 237.58L88.0037 244.637L108.846 247.016ZM104.516 288.799L23.1191 258.293C21.7683 257.838 20.5838 256.991 19.7168 255.86C18.8499 254.729 18.3398 253.365 18.252 251.943H25.2192L82.4698 252.55L103.74 252.779L110.159 252.848L109.453 257.825L109.333 258.691L108.219 266.414L104.516 288.799Z" fill="black"/>
<path d="M170.157 195.479C171.152 197.847 168.047 202.167 169.022 204.884L163.797 204.675C161.73 203.376 160.012 201.59 158.796 199.473C157.579 197.356 156.901 194.973 156.819 192.533C156.738 190.093 157.256 187.67 158.328 185.476C159.401 183.283 160.995 181.386 162.971 179.952C163.399 181.455 163.867 182.818 164.275 183.933C166.146 189.009 161.896 192.055 164.812 194.095C166.325 195.1 168.873 192.294 170.157 195.479Z" fill="white" stroke="black" stroke-width="1.39344" stroke-linecap="round" stroke-linejoin="round"/>
<path d="M25.7565 237.59L25.5575 243.224L25.239 251.943H16.8783C15.9093 251.945 14.9583 251.681 14.1296 251.179C13.3009 250.677 12.6265 249.956 12.1804 249.096L1.80922 229.07C1.68063 228.731 1.64734 228.362 1.71295 228.005C1.77856 227.648 1.94057 227.316 2.18144 227.044C2.42232 226.773 2.73289 226.572 3.07955 226.464C3.42621 226.357 3.79576 226.346 4.14821 226.433C7.44732 227.467 10.6455 228.8 13.7032 230.414L25.7366 237.58L25.7565 237.59Z" stroke="black" stroke-width="1.39344" stroke-linecap="round" stroke-linejoin="round"/>
<path d="M104.486 248.778H123.367V261.219H104.486V248.778Z" fill="black"/>
<path d="M197.389 272.745C196.881 262.593 195.468 239.9 193.656 224.343C193.309 220.948 192.558 217.606 191.417 214.39C187.824 204.675 181.942 204.635 181.942 204.635L178.637 204.496L169.072 204.108L163.847 203.899L156.969 206.318C155.26 206.921 153.616 207.694 152.062 208.627L151.624 208.895C148.519 210.448 143.861 214.549 138.586 219.844C133.609 224.88 123.218 236.764 116.36 244.727C112.033 249.751 109.235 255.909 108.298 262.473L104.526 288.75H123.606C138.785 288.75 143.453 284.072 143.453 284.072C143.707 284.652 144.091 285.167 144.573 285.577C145.056 285.987 145.626 286.283 146.24 286.441V290.86H157.009V286.421C157.882 286.181 158.653 285.662 159.203 284.943C159.753 284.224 160.052 283.345 160.055 282.439V280.449L160.124 276.328C171.252 266.126 178.717 252.44 178.717 252.44L180.707 273.173C180.77 274.026 181.106 274.836 181.666 275.483C182.225 276.13 182.978 276.58 183.813 276.766V281.145H194.582V276.657C195.421 276.394 196.149 275.861 196.653 275.14C197.158 274.42 197.409 273.553 197.369 272.675L197.389 272.745Z" fill="url(#paint0_linear_9_507)"/>
<path d="M17.774 223.148L25.7365 237.59C21.8828 234.938 17.8635 232.534 13.7031 230.394L16.0123 223.327C16.079 223.157 16.1914 223.008 16.3371 222.898C16.4829 222.787 16.6563 222.718 16.8384 222.7C17.0205 222.681 17.2042 222.713 17.3692 222.793C17.5343 222.872 17.6743 222.995 17.774 223.148Z" stroke="black" stroke-width="1.39344" stroke-linecap="round" stroke-linejoin="round"/>
<path d="M140.994 209.084C138.583 208.133 135.921 208.025 133.44 208.776C131.446 209.389 129.661 210.543 128.284 212.11L126.721 213.882C126.408 214.231 126.024 214.51 125.595 214.701C125.167 214.893 124.702 214.992 124.233 214.992C123.764 214.992 123.299 214.893 122.871 214.701C122.442 214.51 122.058 214.231 121.745 213.882L120.749 212.767C119.269 211.122 117.435 209.833 115.386 208.997C113.337 208.16 111.126 207.797 108.917 207.935C106.708 208.073 104.559 208.708 102.63 209.793C100.701 210.877 99.0425 212.384 97.7775 214.2L85.1768 232.305L81.4941 237.6M25.7365 237.58L13.7031 230.384C17.8635 232.524 21.8828 234.928 25.7365 237.58Z" stroke="black" stroke-width="1.39344" stroke-linecap="round" stroke-linejoin="round"/>
<path d="M24.9504 250.818L70.6454 251.395" stroke="white" stroke-width="1.39344" stroke-linecap="round" stroke-linejoin="round"/>
<path d="M150.44 286.58H147.016C146.067 286.577 145.158 286.198 144.489 285.527C143.819 284.855 143.443 283.945 143.443 282.996C142.58 274.574 142.169 266.112 142.209 257.646C142.103 249.996 142.515 242.348 143.443 234.753M185.704 230.245C184.807 235.939 183.316 241.523 181.255 246.906" stroke="#F0FFF9" stroke-width="1.39344" stroke-linecap="round" stroke-linejoin="round"/>
<path d="M57.7261 64.256L42.1892 46.2905M98.2752 34.6154L86.2817 70.0587M76.0598 71.2033L69.7097 38.7858M52.8988 33.5405C59.229 32.2964 64.1458 32.9533 66.027 34.0879C66.8787 34.6102 67.8941 34.7976 68.8761 34.6136C69.8582 34.4297 70.7369 33.8877 71.342 33.0926C72.6658 31.3209 76.9655 28.8625 83.2858 27.6184C86.6627 26.8776 90.1452 26.7495 93.5674 27.2401C98.1658 28.1359 98.4444 30.7437 99.6388 30.5147C100.21 30.4017 100.713 30.0668 101.037 29.5836C101.362 29.1004 101.482 28.5083 101.371 27.9369C100.617 23.5858 99.0022 19.4289 96.621 15.71C94.2398 11.9912 91.14 8.78515 87.5035 6.27994C83.867 3.77474 79.7669 2.02078 75.4437 1.1209C71.1205 0.22103 66.6611 0.193353 62.327 1.0395C57.9929 1.88564 53.8714 3.58857 50.204 6.04844C46.5367 8.50832 43.3974 11.6756 40.9702 15.3646C38.543 19.0537 36.8768 23.1902 36.0691 27.5316C35.2615 31.873 35.3288 36.332 36.267 40.6471C36.3218 40.9304 36.4321 41.2002 36.5915 41.4408C36.7509 41.6814 36.9563 41.8881 37.1958 42.0491C37.4354 42.21 37.7044 42.322 37.9874 42.3786C38.2705 42.4352 38.5619 42.4353 38.8449 42.3789M127.149 78.698L66.7237 85.4164L29.3894 102.864M131.26 119.197L72.0785 125.786L35.5106 142.876L94.6921 136.287L131.26 119.197Z" stroke="black" stroke-width="1.39344" stroke-linecap="round" stroke-linejoin="round"/>
<path d="M92.2735 75.931L65.9972 78.8572M65.9972 78.8572L28.6628 96.3051L29.3894 102.864M65.9972 78.8572L66.7237 85.4164M127.149 78.698L126.423 72.1289L119.784 72.8654M30.6336 102.685L34.0674 131.032L35.5106 142.876M67.311 85.4064L72.1781 125.597M129.548 106.945L131.031 119.187M126.164 78.9966L127.149 87.1482" stroke="black" stroke-width="1.39344" stroke-linecap="round" stroke-linejoin="round"/>
</g>
<defs>
<linearGradient id="paint0_linear_9_507" x1="104.526" y1="247.379" x2="197.389" y2="247.379" gradientUnits="userSpaceOnUse">
<stop stop-color="#EBCFDD"/>
<stop offset="0.4167" stop-color="#C8C5F3"/>
<stop offset="1" stop-color="#D1EDE0"/>
</linearGradient>
<clipPath id="clip0_9_507">
<rect width="246.719" height="300" fill="white" transform="translate(0.953125 0.390625)"/>
</clipPath>
</defs>
</svg>
